<?xml version="1.0" encoding="UTF-8"?>
<svg version="1.1" xmlns="http://www.w3.org/2000/svg" width="500" height="500">
<path d="M0 0 C1.1758667 -0.00929787 1.1758667 -0.00929787 2.37548828 -0.01878357 C4.02960978 -0.02587401 5.68380277 -0.02272114 7.33789062 -0.01000977 C9.86722149 0.00386358 12.39285622 -0.03022728 14.921875 -0.06835938 C16.5312509 -0.06931057 18.14063143 -0.06745174 19.75 -0.0625 C20.5042627 -0.07575821 21.25852539 -0.08901642 22.03564453 -0.10267639 C26.01116507 -0.03225486 27.53710597 0.22426881 30.3828125 3.10571289 C30.87523437 3.9177417 31.36765625 4.72977051 31.875 5.56640625 C32.53491943 4.75437744 33.19483887 3.94234863 33.87475586 3.10571289 C37.56967273 -0.02154159 40.25196016 -0.14685463 44.87890625 -0.0625 C45.63920639 -0.06491196 46.39950653 -0.06732391 47.18284607 -0.06980896 C48.78397864 -0.06883282 50.38514594 -0.05549447 51.98608398 -0.03051758 C54.43394652 0.00385635 56.87820865 -0.00988225 59.32617188 -0.02929688 C60.88543199 -0.02239949 62.44468283 -0.01272806 64.00390625 0 C64.73315811 -0.00495987 65.46240997 -0.00991974 66.21376038 -0.01502991 C69.42593265 0.05930897 71.58041702 0.38544814 74.3359375 2.078125 C76.52425973 5.61609774 76.42924902 8.91122393 76.37109375 12.9453125 C76.37254898 13.75379135 76.37400421 14.5622702 76.37550354 15.39524841 C76.3738466 17.10069389 76.36230811 18.80615463 76.34155273 20.51147461 C76.31255969 23.12352852 76.32095438 25.73355702 76.33398438 28.34570312 C76.32774782 30.00391612 76.31935752 31.66212271 76.30859375 33.3203125 C76.31152939 34.10161026 76.31446503 34.88290802 76.31748962 35.68788147 C76.26732878 38.56536935 76.18507719 40.96710048 74.84741211 43.55249023 C71.66174105 45.19008052 68.38493016 45.03422356 64.8828125 45.03515625 C64.09985809 45.04276978 63.31690369 45.0503833 62.51022339 45.05822754 C60.85434149 45.06902834 59.19839148 45.0718817 57.54248047 45.06738281 C55.01543675 45.06641218 52.49144753 45.10799143 49.96484375 45.15234375 C48.35417298 45.15755232 46.74349169 45.16023892 45.1328125 45.16015625 C44.38057404 45.17655151 43.62833557 45.19294678 42.853302 45.20983887 C38.72369336 45.15576756 37.06750038 44.72833469 33.85888672 42.02929688 C33.2042041 41.21654297 32.54952148 40.40378906 31.875 39.56640625 C31.606875 40.18515625 31.33875 40.80390625 31.0625 41.44140625 C29.875 43.56640625 29.875 43.56640625 26.875 45.56640625 C27.52404297 45.88609375 28.17308594 46.20578125 28.84179688 46.53515625 C31.43069713 49.12156956 31.37095681 51.06004804 31.43078613 54.62304688 C31.42268921 55.42935547 31.41459229 56.23566406 31.40625 57.06640625 C31.4100769 57.89849609 31.41390381 58.73058594 31.41784668 59.58789062 C31.4205675 61.34636648 31.4131943 63.10488269 31.39648438 64.86328125 C31.37507551 67.5569063 31.39627848 70.24786428 31.421875 72.94140625 C31.41923175 74.64974548 31.41410683 76.35808304 31.40625 78.06640625 C31.41434692 78.87271484 31.42244385 79.67902344 31.43078613 80.50976562 C31.37662717 83.73507872 31.33268534 85.97287823 29.32446289 88.57714844 C25.92999692 89.94806203 22.75321024 89.95682936 19.15234375 89.89453125 C18.41045303 89.89265808 17.66856232 89.89078491 16.90419006 89.88885498 C15.33997078 89.88214782 13.77576789 89.86825978 12.21166992 89.84765625 C9.81738696 89.8164699 7.42376296 89.80667956 5.02929688 89.80078125 C3.50780447 89.79161171 1.98631876 89.7812361 0.46484375 89.76953125 C-0.25083267 89.76528137 -0.96650909 89.76103149 -1.70387268 89.75665283 C-4.77494544 89.7124544 -7.1890016 89.54507238 -10.125 88.56640625 C-12.76061706 85.01786616 -12.44800805 80.93175652 -12.4609375 76.6953125 C-12.4675943 75.93596909 -12.4742511 75.17662567 -12.48110962 74.39427185 C-12.49121487 72.79143692 -12.4959273 71.18856011 -12.49560547 69.58569336 C-12.49997943 67.14040524 -12.53631988 64.69692221 -12.57421875 62.25195312 C-12.58008736 60.6914124 -12.58405646 59.13086313 -12.5859375 57.5703125 C-12.60030853 56.84308487 -12.61467957 56.11585724 -12.62948608 55.36659241 C-12.58575464 50.48094509 -11.54546759 48.03643969 -8.125 44.56640625 C-8.599375 44.11265625 -9.07375 43.65890625 -9.5625 43.19140625 C-12.79960255 39.8248196 -12.31936359 36.27112443 -12.36328125 31.85546875 C-12.371353 31.09092377 -12.37942474 30.32637878 -12.38774109 29.53866577 C-12.40157813 27.91968044 -12.41230199 26.30066599 -12.42016602 24.68164062 C-12.43738609 22.20777059 -12.48127351 19.73523479 -12.52539062 17.26171875 C-12.53551715 15.68881191 -12.54403338 14.11589371 -12.55078125 12.54296875 C-12.56828934 11.80430573 -12.58579742 11.0656427 -12.60383606 10.30459595 C-12.59009985 7.04625306 -12.3296422 4.8982878 -10.60620117 2.10327148 C-7.14214799 -0.04237594 -3.95581852 -0.02601261 0 0 Z M31.875 21.56640625 C32.875 24.56640625 32.875 24.56640625 32.875 24.56640625 Z M3.875 44.56640625 C3.875 44.89640625 3.875 45.22640625 3.875 45.56640625 C6.845 45.56640625 9.815 45.56640625 12.875 45.56640625 C12.875 45.23640625 12.875 44.90640625 12.875 44.56640625 C9.905 44.56640625 6.935 44.56640625 3.875 44.56640625 Z " fill="#7AABD2" transform="translate(198.125,189.43359375)"/>
<path d="M0 0 C10.31702417 3.90416264 17.82982728 10.24110255 23 20 C24.30880362 23.28474061 25.23242702 26.5514837 26 30 C26.17789063 30.73734375 26.35578125 31.4746875 26.5390625 32.234375 C27.27678722 36.0821157 27.21746637 37.66327788 25.0625 41 C24.381875 41.66 23.70125 42.32 23 43 C23.680625 43.474375 24.36125 43.94875 25.0625 44.4375 C27.20528531 47.27150638 27.28013663 47.7574001 27 51.125 C25.70253618 59.09326264 22.1602283 66.16533921 18 73 C17.34 73 16.68 73 16 73 C16 73.66 16 74.32 16 75 C15.34 75 14.68 75 14 75 C14 75.66 14 76.32 14 77 C13.34 77 12.68 77 12 77 C12 77.66 12 78.32 12 79 C5.3688086 83.12243267 -0.94046076 86.75706044 -9 86 C-11 84 -11 84 -11.22705078 80.19287109 C-11.22673346 78.5530258 -11.21539681 76.91315983 -11.1953125 75.2734375 C-11.1924826 74.41062164 -11.18965271 73.54780579 -11.18673706 72.65884399 C-11.17552333 69.8974228 -11.15041684 67.1363235 -11.125 64.375 C-11.11497173 62.50521301 -11.10584562 60.63542095 -11.09765625 58.765625 C-11.07558012 54.17695891 -11.04104234 49.58853407 -11 45 C-10.01 44.505 -10.01 44.505 -9 44 C-9 43.01 -9 42.02 -9 41 C-9.66 40.67 -10.32 40.34 -11 40 C-11 26.8 -11 13.6 -11 0 C-7.45140022 -1.77429989 -3.77210838 -0.83123969 0 0 Z " fill="#303E4D" transform="translate(287,192)"/>
<path d="M0 0 C1.73926758 -0.01836914 1.73926758 -0.01836914 3.51367188 -0.03710938 C9.78961404 -0.04781309 15.34421951 0.16975393 21.3125 2.1875 C24.3151986 5.1901986 23.63739079 8.56221949 23.6484375 12.58984375 C23.6550943 13.42334854 23.6617511 14.25685333 23.66860962 15.11561584 C23.67874313 16.88003326 23.68342642 18.64448906 23.68310547 20.40893555 C23.6874776 23.1111556 23.72378482 25.81174116 23.76171875 28.51367188 C23.76758696 30.2265569 23.77155632 31.9394497 23.7734375 33.65234375 C23.78780853 34.4617894 23.80217957 35.27123505 23.81698608 36.10520935 C23.77224051 41.58895895 23.77224051 41.58895895 21.76635742 44.20043945 C18.36953238 45.56680734 15.19158911 45.57793832 11.58984375 45.515625 C10.84795303 45.51375183 10.10606232 45.51187866 9.34169006 45.50994873 C7.77747078 45.50324157 6.21326789 45.48935353 4.64916992 45.46875 C2.25488696 45.43756365 -0.13873704 45.42777331 -2.53320312 45.421875 C-4.05469553 45.41270546 -5.57618124 45.40232985 -7.09765625 45.390625 C-7.81333267 45.38637512 -8.52900909 45.38212524 -9.26637268 45.37774658 C-12.33744544 45.33354815 -14.7515016 45.16616613 -17.6875 44.1875 C-20.3314514 40.63271897 -20.010537 36.52639141 -20.0234375 32.28125 C-20.0300943 31.51953491 -20.0367511 30.75781982 -20.04360962 29.97302246 C-20.05371376 28.3659913 -20.05842733 26.75891836 -20.05810547 25.15185547 C-20.06248558 22.69558741 -20.09884408 20.24110742 -20.13671875 17.78515625 C-20.14258609 16.22136029 -20.14655604 14.65755583 -20.1484375 13.09375 C-20.16280853 12.36136108 -20.17717957 11.62897217 -20.19198608 10.87438965 C-20.16116505 7.43070682 -19.95186357 5.53661975 -17.84619141 2.75585938 C-12.60672133 -1.0507857 -6.19376995 0.00338642 0 0 Z " fill="#E87552" transform="translate(205.6875,233.8125)"/>
<path d="M0 0 C0.76171509 -0.00524185 1.52343018 -0.0104837 2.30822754 -0.0158844 C3.91527083 -0.02229471 5.52236109 -0.02098039 7.12939453 -0.01245117 C9.58581102 -0.00393378 12.03990647 -0.03272389 14.49609375 -0.06445312 C16.05989514 -0.06606515 17.62370063 -0.06548759 19.1875 -0.0625 C20.28608337 -0.07935097 20.28608337 -0.07935097 21.40686035 -0.09654236 C24.64317224 -0.05238368 26.78280784 0.24113659 29.5546875 1.95678711 C31.70723374 5.42087049 31.6674756 8.60181177 31.625 12.55859375 C31.6288269 13.34250488 31.63265381 14.12641602 31.63659668 14.93408203 C31.63931353 16.58822924 31.6319681 18.24241958 31.61523438 19.89648438 C31.59381892 22.42545537 31.61504097 24.95158589 31.640625 27.48046875 C31.63798168 29.08985001 31.63285661 30.6992295 31.625 32.30859375 C31.63309692 33.06285645 31.64119385 33.81711914 31.64953613 34.59423828 C31.5907228 37.89454942 31.30700485 40.09312367 29.54101562 42.91259766 C26.19640015 44.9913042 23.22363155 44.97174243 19.40625 44.89453125 C18.66673096 44.89361481 17.92721191 44.89269836 17.1652832 44.89175415 C15.60524051 44.88572518 14.04520901 44.87000003 12.48535156 44.84521484 C10.10177808 44.80871668 7.71976124 44.80419558 5.3359375 44.8046875 C3.81769495 44.79485505 2.29946289 44.78319748 0.78125 44.76953125 C0.07073486 44.7673056 -0.63978027 44.76507996 -1.37182617 44.76278687 C-5.00745541 44.69328864 -7.87297596 44.55033221 -10.90625 42.43359375 C-12.50450768 39.23707838 -12.11166665 35.76292822 -12.14453125 32.25 C-12.152603 31.43869125 -12.16067474 30.62738251 -12.16899109 29.79148865 C-12.18282837 28.07414893 -12.19355212 26.35678175 -12.20141602 24.6394043 C-12.21866059 22.00972749 -12.26255138 19.3812978 -12.30664062 16.75195312 C-12.31676482 15.08464467 -12.32528178 13.41732553 -12.33203125 11.75 C-12.34953934 10.96242813 -12.36704742 10.17485626 -12.38508606 9.36341858 C-12.3724033 6.18105081 -12.35195592 4.01314635 -10.3737793 1.44091797 C-6.92768174 0.03411095 -3.66476439 -0.01468949 0 0 Z " fill="#E97451" transform="translate(242.90625,234.56640625)"/>
<path d="M0 0 C0.81085052 -0.00145523 1.62170105 -0.00291046 2.4571228 -0.00440979 C4.16676436 -0.00275302 5.87642116 0.00878352 7.5859375 0.02954102 C10.20897313 0.05857201 12.82999685 0.05013165 15.453125 0.03710938 C17.11459319 0.04334466 18.77605499 0.05173396 20.4375 0.0625 C21.22395905 0.05956436 22.01041809 0.05662872 22.82070923 0.05360413 C25.02587891 0.09204102 25.02587891 0.09204102 28.5859375 0.49609375 C31.15083682 4.34344273 30.89176209 7.534327 30.88671875 11.99609375 C30.89100388 12.82818359 30.895289 13.66027344 30.89970398 14.51757812 C30.90544443 16.27603241 30.90594963 18.03451044 30.90161133 19.79296875 C30.89844925 22.48608774 30.92192048 25.17811043 30.94726562 27.87109375 C30.94953841 29.5794257 30.95024221 31.2877606 30.94921875 32.99609375 C30.9584285 33.80240234 30.96763824 34.60871094 30.97712708 35.43945312 C30.93064845 41.04243765 30.93064845 41.04243765 29.28652954 43.20617676 C26.41634994 45.38323824 23.02291389 44.96392494 19.55859375 44.96484375 C18.77326767 44.97245728 17.98794159 44.9800708 17.17881775 44.98791504 C15.5187396 44.99871464 13.85859351 45.00156968 12.19848633 44.99707031 C9.66046616 44.99609836 7.12547377 45.03770665 4.58789062 45.08203125 C2.97396463 45.08723872 1.36002814 45.08992644 -0.25390625 45.08984375 C-1.011306 45.10623901 -1.76870575 45.12263428 -2.54905701 45.13952637 C-6.16709579 45.09215836 -8.06608684 44.78226043 -10.89086914 42.45922852 C-12.79700254 38.75114371 -12.99070328 35.5689741 -12.9453125 31.4921875 C-12.95105286 30.35173729 -12.95105286 30.35173729 -12.95690918 29.18824768 C-12.95962176 27.58715484 -12.95230629 25.98601719 -12.93554688 24.38500977 C-12.91409506 21.93730897 -12.93538268 19.49253286 -12.9609375 17.04492188 C-12.95829468 15.48567062 -12.95317065 13.92642119 -12.9453125 12.3671875 C-12.95340942 11.63793564 -12.96150635 10.90868378 -12.96984863 10.15733337 C-12.91062479 6.94318645 -12.59695139 4.79468786 -10.90673828 2.03515625 C-7.35722043 -0.15643636 -4.04553905 -0.05808651 0 0 Z M3.5859375 16.49609375 C5.02847407 19.86201241 6.91858477 22.00656454 9.5859375 24.49609375 C10.2459375 24.16609375 10.9059375 23.83609375 11.5859375 23.49609375 C10.4431456 22.32644773 9.29662035 21.16044819 8.1484375 19.99609375 C7.51035156 19.34640625 6.87226563 18.69671875 6.21484375 18.02734375 C4.83710823 16.38193899 4.83710823 16.38193899 3.5859375 16.49609375 Z M11.5859375 24.49609375 C11.5859375 25.15609375 11.5859375 25.81609375 11.5859375 26.49609375 C12.2459375 26.16609375 12.9059375 25.83609375 13.5859375 25.49609375 C12.9259375 25.16609375 12.2659375 24.83609375 11.5859375 24.49609375 Z M13.5859375 27.49609375 C14.5759375 28.98109375 14.5759375 28.98109375 15.5859375 30.49609375 C16.2459375 30.16609375 16.9059375 29.83609375 17.5859375 29.49609375 C16.2659375 28.83609375 14.9459375 28.17609375 13.5859375 27.49609375 Z " fill="#2F3E4C" transform="translate(198.4140625,144.50390625)"/>
<path d="M0 0 C0.76171509 -0.0038269 1.52343018 -0.00765381 2.30822754 -0.01159668 C3.91529668 -0.01431313 5.52241024 -0.00697044 7.12939453 0.00976562 C9.58596587 0.03118214 12.03961311 0.00995822 14.49609375 -0.015625 C16.05990227 -0.01298167 17.62370898 -0.00785658 19.1875 0 C19.91988892 -0.00809692 20.65227783 -0.01619385 21.40686035 -0.02453613 C24.63059093 0.03458543 26.78922947 0.34462591 29.55688477 2.04077148 C31.74128511 5.58057576 31.64799801 8.87613768 31.58984375 12.91015625 C31.59129898 13.7186351 31.59275421 14.52711395 31.59425354 15.36009216 C31.5925966 17.06553764 31.58105811 18.77099838 31.56030273 20.47631836 C31.53130969 23.08837227 31.53970438 25.69840077 31.55273438 28.31054688 C31.54649782 29.96875987 31.53810752 31.62696646 31.52734375 33.28515625 C31.53027939 34.06645401 31.53321503 34.84775177 31.53623962 35.65272522 C31.48608443 38.52988889 31.40232337 40.93291154 30.06835938 43.51953125 C26.87027961 45.15811218 23.57875589 44.97842113 20.06640625 44.96484375 C19.28108017 44.9700856 18.49575409 44.97532745 17.68663025 44.98072815 C16.0265318 44.98714822 14.36638785 44.9858115 12.70629883 44.97729492 C10.16860725 44.96879141 7.63317186 44.99753235 5.09570312 45.02929688 C3.48177151 45.03090919 1.86783591 45.03033077 0.25390625 45.02734375 C-0.5034935 45.03857773 -1.26089325 45.04981171 -2.04124451 45.06138611 C-5.53150131 45.01532015 -7.53021847 44.81134179 -10.36547852 42.69946289 C-13.82053401 37.83742077 -12.947288 32.0860546 -12.35546875 26.44921875 C-11.90625 24.53125 -11.90625 24.53125 -9.90625 22.53125 C-9.57625 21.54125 -9.24625 20.55125 -8.90625 19.53125 C-7.25625 19.20125 -5.60625 18.87125 -3.90625 18.53125 C-3.90625 19.85125 -3.90625 21.17125 -3.90625 22.53125 C-2.94203125 22.37527344 -1.9778125 22.21929687 -0.984375 22.05859375 C0.91054687 21.76662109 0.91054687 21.76662109 2.84375 21.46875 C4.09671875 21.27152344 5.3496875 21.07429688 6.640625 20.87109375 C9.59391589 20.58044182 11.3539914 20.54189273 14.09375 21.53125 C13.76375 20.54125 13.43375 19.55125 13.09375 18.53125 C12.10375 18.20125 11.11375 17.87125 10.09375 17.53125 C10.09375 15.22125 10.09375 12.91125 10.09375 10.53125 C8.01070462 10.47706674 5.92725232 10.43837449 3.84375 10.40625 C2.68359375 10.38304687 1.5234375 10.35984375 0.328125 10.3359375 C-2.81440269 10.52570366 -4.20552423 11.10981538 -6.90625 12.53125 C-10.15625 11.65625 -10.15625 11.65625 -12.90625 10.53125 C-12.60905946 7.26215401 -12.282875 5.05757752 -10.35351562 2.36132812 C-7.00473252 -0.14290952 -4.02201828 -0.04446541 0 0 Z " fill="#77A9D2" transform="translate(242.90625,189.46875)"/>
<path d="M0 0 C2.26960933 0.00316746 4.53792417 -0.02033166 6.80737305 -0.0456543 C8.24552244 -0.04792657 9.68367535 -0.04863112 11.12182617 -0.04760742 C12.4328833 -0.05058838 13.74394043 -0.05356934 15.09472656 -0.05664062 C16.12331787 0.06622314 17.15190918 0.18908691 18.21166992 0.31567383 C20.699153 4.04689844 20.34446391 5.51295849 19.75463867 9.78051758 C18.23964546 16.85411896 14.94621167 23.18035525 11.21166992 29.31567383 C10.55166992 29.31567383 9.89166992 29.31567383 9.21166992 29.31567383 C9.21166992 29.97567383 9.21166992 30.63567383 9.21166992 31.31567383 C8.55166992 31.31567383 7.89166992 31.31567383 7.21166992 31.31567383 C7.21166992 31.97567383 7.21166992 32.63567383 7.21166992 33.31567383 C6.55166992 33.31567383 5.89166992 33.31567383 5.21166992 33.31567383 C5.21166992 33.97567383 5.21166992 34.63567383 5.21166992 35.31567383 C-0.87242818 39.21352391 -5.55012835 40.97099756 -12.78833008 41.31567383 C-13.11833008 40.65567383 -13.44833008 39.99567383 -13.78833008 39.31567383 C-14.44833008 38.98567383 -15.10833008 38.65567383 -15.78833008 38.31567383 C-17.78363363 36.32037028 -16.97605199 32.36538068 -16.99145508 29.63208008 C-16.99715515 28.8613768 -17.00285522 28.09067352 -17.00872803 27.2966156 C-17.01819075 25.66325255 -17.02471704 24.0298703 -17.02856445 22.39648438 C-17.03827647 19.89199703 -17.06928922 17.38832793 -17.10083008 14.8840332 C-17.10735919 13.30005372 -17.11261002 11.71606835 -17.11645508 10.13208008 C-17.12880188 9.37995743 -17.14114868 8.62783478 -17.15386963 7.85292053 C-17.14477539 5.73974609 -17.14477539 5.73974609 -16.78833008 2.31567383 C-11.81555071 -0.99951242 -5.82555237 -0.01708744 0 0 Z " fill="#2A3948" transform="translate(293.788330078125,235.684326171875)"/>
<path d="M0 0 C3.361875 -0.0825 6.72375 -0.165 10.1875 -0.25 C11.23832764 -0.28641602 12.28915527 -0.32283203 13.37182617 -0.36035156 C17.76294509 -0.41256163 20.30218827 -0.42566515 24.125 1.90625 C27.81518948 6.02696159 27.28623903 10.66747289 27 16 C26.67364302 17.66804677 26.34274406 19.33524314 26 21 C26.33 21.66 26.66 22.32 27 23 C27.14754174 24.78752492 27.2211522 26.5816284 27.25 28.375 C27.27578125 29.33148438 27.3015625 30.28796875 27.328125 31.2734375 C26.93330716 34.55418574 26.42935882 35.75827458 24 38 C19.00813433 39.93213848 14.50698551 40.24583932 9.1875 40.1875 C7.88167969 40.18105469 6.57585937 40.17460937 5.23046875 40.16796875 C2 40 2 40 0 39 C0 26.13 0 13.26 0 0 Z M6 6 C6 9.3 6 12.6 6 16 C8.14576637 16.02685938 10.29162645 16.04633088 12.4375 16.0625 C14.22994141 16.07990234 14.22994141 16.07990234 16.05859375 16.09765625 C18.88873341 16.33901792 18.88873341 16.33901792 20 15 C20.33338596 11.54187831 20.33338596 11.54187831 20 8 C16.57905758 5.71937172 15.31812778 5.78074993 11.3125 5.875 C10.31863281 5.89304687 9.32476562 5.91109375 8.30078125 5.9296875 C7.54152344 5.95289063 6.78226563 5.97609375 6 6 Z M6 23 C6 25.97 6 28.94 6 32 C8.48754786 33.24377393 10.22655301 33.13306235 13 33.125 C14.3303125 33.12886719 14.3303125 33.12886719 15.6875 33.1328125 C18.02676966 33.15127902 18.02676966 33.15127902 20 32 C20.04241723 29.66705225 20.04092937 27.33297433 20 25 C18.12175109 23.12175109 14.96064724 23.60897603 12.4375 23.4375 C11.23996094 23.35371094 10.04242188 23.26992188 8.80859375 23.18359375 C7.88175781 23.12300781 6.95492187 23.06242187 6 23 Z " fill="#2D3D48" transform="translate(136,315)"/>
<path d="M0 0 C0.81210938 -0.02900391 1.62421875 -0.05800781 2.4609375 -0.08789062 C6.53816169 -0.13105342 8.7068295 -0.01748311 12.265625 2.14453125 C16.45546822 6.72201744 15.43378542 12.52454141 15.4375 18.375 C15.44974609 19.39400391 15.46199219 20.41300781 15.47460938 21.46289062 C15.47750977 22.92178711 15.47750977 22.92178711 15.48046875 24.41015625 C15.48457764 25.30226807 15.48868652 26.19437988 15.49291992 27.11352539 C15.25 29.3125 15.25 29.3125 13.25 31.3125 C5.69100667 32.01629986 -2.12516345 32.41358929 -8.75 28.3125 C-10.59715804 24.61818392 -10.22560286 20.34535167 -9.75 16.3125 C-7.46959125 12.97333004 -5.612552 12.05422194 -1.75 11.3125 C-0.16788427 11.24701508 1.41670081 11.22671619 3 11.25 C3.79921875 11.25902344 4.5984375 11.26804687 5.421875 11.27734375 C6.02515625 11.28894531 6.6284375 11.30054688 7.25 11.3125 C7.25 10.3225 7.25 9.3325 7.25 8.3125 C6.10660156 8.25191406 4.96320313 8.19132812 3.78515625 8.12890625 C2.29425695 8.04451572 0.80337225 7.95986698 -0.6875 7.875 C-1.44224609 7.83568359 -2.19699219 7.79636719 -2.97460938 7.75585938 C-8.63671875 7.42578125 -8.63671875 7.42578125 -9.75 6.3125 C-9.875 3.8125 -9.875 3.8125 -9.75 1.3125 C-7.5966026 -0.8408974 -2.9703387 0.03470022 0 0 Z M-1.75 19.3125 C-2.08 20.9625 -2.41 22.6125 -2.75 24.3125 C0.22 24.3125 3.19 24.3125 6.25 24.3125 C6.58 22.9925 6.91 21.6725 7.25 20.3125 C6.26732141 19.10688816 6.26732141 19.10688816 4.40234375 19.21484375 C2.3515625 19.24739583 0.30078125 19.27994792 -1.75 19.3125 Z " fill="#4A6572" transform="translate(176.75,323.6875)"/>
<path d="M0 0 C0.7115625 -0.00708984 1.423125 -0.01417969 2.15625 -0.02148438 C5.25219505 0.01605973 7.63261588 0.25112848 10.41015625 1.66015625 C13.38525652 4.98612829 13.78475518 9.09094335 14 13.4375 C12.84360954 16.52120789 11.99543902 17.8048432 9.2421875 19.5546875 C6.45182784 20.65333085 4.23943106 20.63367693 1.25 20.5625 C0.26515625 20.54445313 -0.7196875 20.52640625 -1.734375 20.5078125 C-2.48203125 20.48460937 -3.2296875 20.46140625 -4 20.4375 C-4 21.7575 -4 23.0775 -4 24.4375 C0.95 24.4375 5.9 24.4375 11 24.4375 C11 26.7475 11 29.0575 11 31.4375 C8.62468606 31.4918965 6.25064117 31.53135864 3.875 31.5625 C3.20984375 31.57925781 2.5446875 31.59601563 1.859375 31.61328125 C-2.48824616 31.65590499 -6.02060273 31.22055338 -10 29.4375 C-12.97283733 24.978244 -12.36827788 20.74661565 -12.375 15.5 C-12.39949219 14.49775391 -12.42398437 13.49550781 -12.44921875 12.46289062 C-12.47799598 5.27338014 -12.47799598 5.27338014 -10.4765625 1.7734375 C-7.00953668 -0.09678778 -3.83722232 -0.10774809 0 0 Z M-3 7.4375 C-3.33 9.0875 -3.66 10.7375 -4 12.4375 C-2.54257537 12.51846803 -1.08387193 12.57667774 0.375 12.625 C1.59316406 12.67720703 1.59316406 12.67720703 2.8359375 12.73046875 C3.55007813 12.63378906 4.26421875 12.53710938 5 12.4375 C5.66 11.4475 6.32 10.4575 7 9.4375 C3.3558226 7.0080484 1.28758728 7.27570425 -3 7.4375 Z " fill="#404D59" transform="translate(351,323.5625)"/>
<path d="M0 0 C0.84304687 0.00193359 1.68609375 0.00386719 2.5546875 0.00585938 C3.43125 0.01810547 4.3078125 0.03035156 5.2109375 0.04296875 C6.53738281 0.04393555 6.53738281 0.04393555 7.890625 0.04492188 C14.44563224 0.09016349 14.44563224 0.09016349 15.5859375 1.23046875 C15.62657582 2.8966399 15.6286585 4.5643497 15.5859375 6.23046875 C14.45414062 6.27945312 13.32234375 6.3284375 12.15625 6.37890625 C10.67445411 6.45393389 9.1926845 6.52948172 7.7109375 6.60546875 C6.96457031 6.63640625 6.21820313 6.66734375 5.44921875 6.69921875 C1.05120562 6.78690706 1.05120562 6.78690706 -2.4140625 9.23046875 C-2.66411636 12.27229768 -2.66411636 12.27229768 -2.4140625 15.23046875 C-0.1532572 17.49127405 5.32531207 16.55683142 8.38671875 16.65625 C12.17813039 17.33675978 13.36316397 18.1185858 15.5859375 21.23046875 C16.87033247 25.93991697 17.13326967 30.58847225 15.5859375 35.23046875 C10.80854246 40.00786379 6.35953737 40.41508746 -0.1640625 40.48046875 C-3.60527414 40.43245184 -6.14381115 40.32055253 -9.4140625 39.23046875 C-9.4140625 37.25046875 -9.4140625 35.27046875 -9.4140625 33.23046875 C-4.37396726 32.6032569 0.5027316 32.23046875 5.5859375 32.23046875 C7.85160093 31.79105352 7.85160093 31.79105352 9.5859375 31.23046875 C9.5859375 29.25046875 9.5859375 27.27046875 9.5859375 25.23046875 C8.63332031 25.1325 7.68070312 25.03453125 6.69921875 24.93359375 C5.44496094 24.7840625 4.19070313 24.63453125 2.8984375 24.48046875 C1.03638672 24.27164062 1.03638672 24.27164062 -0.86328125 24.05859375 C-4.75318598 23.15137725 -6.61245582 22.03727321 -9.4140625 19.23046875 C-11.09374068 14.1914342 -11.28471078 9.17906252 -9.1015625 4.29296875 C-6.32436169 0.89861221 -4.24487793 -0.02253683 0 0 Z " fill="#2B3B49" transform="translate(253.4140625,314.76953125)"/>
<path d="M0 0 C2.91691525 -0.05401695 5.83282724 -0.09368066 8.75 -0.125 C9.575 -0.14175781 10.4 -0.15851563 11.25 -0.17578125 C12.04921875 -0.18222656 12.8484375 -0.18867188 13.671875 -0.1953125 C14.4050293 -0.20578613 15.13818359 -0.21625977 15.89355469 -0.22705078 C18.43841156 0.04725577 19.89684983 0.52535838 22 2 C23.90834365 5.52483628 24.24797699 8.51721333 24.23046875 12.484375 C24.22853516 13.50144531 24.22660156 14.51851563 24.22460938 15.56640625 C24.20624023 17.14228516 24.20624023 17.14228516 24.1875 18.75 C24.18685547 19.81605469 24.18621094 20.88210938 24.18554688 21.98046875 C24.14037976 29.85962024 24.14037976 29.85962024 23 31 C7.20588509 32.01063533 7.20588509 32.01063533 1 29 C-1.11271897 25.81393827 -1.29494258 22.89290374 -1.4609375 19.09765625 C-0.75193217 15.87108114 0.64389899 14.28702964 3 12 C6.234375 11.07421875 6.234375 11.07421875 9.75 10.6875 C11.50570312 10.47673828 11.50570312 10.47673828 13.296875 10.26171875 C14.18890625 10.17535156 15.0809375 10.08898437 16 10 C13.14206684 7.14206684 10.85334416 7.59200059 6.875 7.375 C5.59367188 7.30023438 4.31234375 7.22546875 2.9921875 7.1484375 C1.51105469 7.07496094 1.51105469 7.07496094 0 7 C0 4.69 0 2.38 0 0 Z M6 20 C6 21.32 6 22.64 6 24 C9.3 24 12.6 24 16 24 C16.33 22.68 16.66 21.36 17 20 C12.66370819 17.7043161 10.46535773 18.13078049 6 20 Z " fill="#4D5A67" transform="translate(215,324)"/>
<path d="M0 0 C1.98 0 3.96 0 6 0 C6.33 7.59 6.66 15.18 7 23 C10.3 23 13.6 23 17 23 C17.06058594 21.42347656 17.12117188 19.84695313 17.18359375 18.22265625 C17.26797987 16.16926057 17.35262883 14.11587569 17.4375 12.0625 C17.47681641 11.02158203 17.51613281 9.98066406 17.55664062 8.90820312 C17.59853516 7.91884766 17.64042969 6.92949219 17.68359375 5.91015625 C17.72025146 4.99371338 17.75690918 4.07727051 17.79467773 3.13305664 C18 1 18 1 19 0 C21.5 -0.125 21.5 -0.125 24 0 C25 1 25 1 25.11352539 3.77563477 C25.10828857 4.98533936 25.10305176 6.19504395 25.09765625 7.44140625 C25.09443359 8.74658203 25.09121094 10.05175781 25.08789062 11.39648438 C25.07953401 12.7851569 25.07106905 14.17382877 25.0625 15.5625 C25.05748666 16.95507656 25.05292347 18.34765481 25.04882812 19.74023438 C25.03699434 23.1601987 25.0205088 26.58007844 25 30 C17.03970965 31.16883062 9.60618261 32.20260321 2 29 C2 28.34 2 27.68 2 27 C1.34 27 0.68 27 0 27 C0 18.09 0 9.18 0 0 Z " fill="#434E59" transform="translate(274,324)"/>
<path d="M0 0 C0.76171509 -0.00524185 1.52343018 -0.0104837 2.30822754 -0.0158844 C3.91527083 -0.02229471 5.52236109 -0.02098039 7.12939453 -0.01245117 C9.58581102 -0.00393378 12.03990647 -0.03272389 14.49609375 -0.06445312 C16.05989514 -0.06606515 17.62370063 -0.06548759 19.1875 -0.0625 C20.28608337 -0.07935097 20.28608337 -0.07935097 21.40686035 -0.09654236 C24.64317224 -0.05238368 26.78280784 0.24113659 29.5546875 1.95678711 C31.70723374 5.42087049 31.6674756 8.60181177 31.625 12.55859375 C31.6288269 13.34250488 31.63265381 14.12641602 31.63659668 14.93408203 C31.63931353 16.58822924 31.6319681 18.24241958 31.61523438 19.89648438 C31.59381892 22.42545537 31.61504097 24.95158589 31.640625 27.48046875 C31.63798168 29.08985001 31.63285661 30.6992295 31.625 32.30859375 C31.63309692 33.06285645 31.64119385 33.81711914 31.64953613 34.59423828 C31.5907228 37.89454942 31.30700485 40.09312367 29.54101562 42.91259766 C26.19640015 44.9913042 23.22363155 44.97174243 19.40625 44.89453125 C18.66673096 44.89361481 17.92721191 44.89269836 17.1652832 44.89175415 C15.60524051 44.88572518 14.04520901 44.87000003 12.48535156 44.84521484 C10.10177808 44.80871668 7.71976124 44.80419558 5.3359375 44.8046875 C3.81769495 44.79485505 2.29946289 44.78319748 0.78125 44.76953125 C0.07073486 44.7673056 -0.63978027 44.76507996 -1.37182617 44.76278687 C-5.00745541 44.69328864 -7.87297596 44.55033221 -10.90625 42.43359375 C-12.50450768 39.23707838 -12.11166665 35.76292822 -12.14453125 32.25 C-12.152603 31.43869125 -12.16067474 30.62738251 -12.16899109 29.79148865 C-12.18282837 28.07414893 -12.19355212 26.35678175 -12.20141602 24.6394043 C-12.21866059 22.00972749 -12.26255138 19.3812978 -12.30664062 16.75195312 C-12.31676482 15.08464467 -12.32528178 13.41732553 -12.33203125 11.75 C-12.34953934 10.96242813 -12.36704742 10.17485626 -12.38508606 9.36341858 C-12.3724033 6.18105081 -12.35195592 4.01314635 -10.3737793 1.44091797 C-6.92768174 0.03411095 -3.66476439 -0.01468949 0 0 Z M-10.90625 4.43359375 C-11.16399603 7.18288477 -11.23284858 9.68866781 -11.15625 12.43359375 C-11.14311768 13.22507813 -11.12998535 14.0165625 -11.11645508 14.83203125 C-11.06523128 17.36673458 -10.9873543 19.89968413 -10.90625 22.43359375 C-10.88546387 23.284375 -10.86467773 24.13515625 -10.84326172 25.01171875 C-10.77920266 27.48677112 -10.69145825 29.9596611 -10.59375 32.43359375 C-10.57151367 33.20445312 -10.54927734 33.9753125 -10.52636719 34.76953125 C-10.44071937 37.16506027 -10.44071937 37.16506027 -9.90625 40.43359375 C-6.22375827 42.88858824 -4.36316904 42.69134289 0.02734375 42.69921875 C1.03886253 42.70208893 1.03886253 42.70208893 2.07081604 42.70501709 C3.49553806 42.70637657 4.92027257 42.70269665 6.3449707 42.69433594 C8.519979 42.68364913 10.69415826 42.69423 12.86914062 42.70703125 C14.25521015 42.70570929 15.64127916 42.70314613 17.02734375 42.69921875 C18.9153772 42.69583496 18.9153772 42.69583496 20.84155273 42.69238281 C24.35041594 42.61764068 24.35041594 42.61764068 28.09375 40.43359375 C28.09375 30.53359375 28.09375 20.63359375 28.09375 10.43359375 C21.5588175 11.64612028 21.5588175 11.64612028 16.90625 15.49609375 C16.638125 16.13546875 16.37 16.77484375 16.09375 17.43359375 C13.78375 17.43359375 11.47375 17.43359375 9.09375 17.43359375 C12.55875 16.93859375 12.55875 16.93859375 16.09375 16.43359375 C16.47438221 14.10750805 16.80644945 11.77304111 17.09375 9.43359375 C16.76375 9.10359375 16.43375 8.77359375 16.09375 8.43359375 C16.856875 8.51609375 17.62 8.59859375 18.40625 8.68359375 C21.23791344 8.73701446 21.23791344 8.73701446 22.78125 6.43359375 C23.214375 5.77359375 23.6475 5.11359375 24.09375 4.43359375 C24.75375 4.43359375 25.41375 4.43359375 26.09375 4.43359375 C26.09375 3.77359375 26.09375 3.11359375 26.09375 2.43359375 C21.30657458 2.3841591 16.51954773 2.34785793 11.73217773 2.32373047 C10.10357068 2.31367233 8.47498168 2.30002417 6.84643555 2.28271484 C4.50565128 2.25845801 2.16510576 2.24710892 -0.17578125 2.23828125 C-0.90400589 2.22795868 -1.63223053 2.21763611 -2.38252258 2.20700073 C-6.11900069 2.20617126 -7.71300056 2.30476079 -10.90625 4.43359375 Z " fill="#DF8063" transform="translate(242.90625,234.56640625)"/>
<path d="M0 0 C2.31 0 4.62 0 7 0 C7 2.31 7 4.62 7 7 C8.299375 6.979375 9.59875 6.95875 10.9375 6.9375 C12.29165633 6.91600546 13.64756083 6.92851801 15 7 C16 8 16 8 16.0625 10.5625 C16.041875 11.366875 16.02125 12.17125 16 13 C13.36 13.99 10.72 14.98 8 16 C7.67 20.95 7.34 25.9 7 31 C9.64 31 12.28 31 15 31 C16.125 35.75 16.125 35.75 15 38 C5.23625255 38.57433809 5.23625255 38.57433809 1 35 C0.09761253 32.29283758 -0.11851302 30.76223232 -0.09765625 27.98828125 C-0.09443359 27.23095703 -0.09121094 26.47363281 -0.08789062 25.69335938 C-0.07951172 24.90767578 -0.07113281 24.12199219 -0.0625 23.3125 C-0.05798828 22.51521484 -0.05347656 21.71792969 -0.04882812 20.89648438 C-0.0370585 18.93095743 -0.01912348 16.96546915 0 15 C-1.98 14.34 -3.96 13.68 -6 13 C-6.042721 11.33388095 -6.04063832 9.66617115 -6 8 C-5 7 -5 7 -2.4375 6.9375 C-1.2309375 6.9684375 -1.2309375 6.9684375 0 7 C0 4.69 0 2.38 0 0 Z " fill="#43505D" transform="translate(319,317)"/>
<path d="M0 0 C0.33 0 0.66 0 1 0 C1 10.89 1 21.78 1 33 C2.485 32.505 2.485 32.505 4 32 C6.73865287 31.92948886 9.45027588 31.90642235 12.1875 31.9375 C12.93708984 31.94201172 13.68667969 31.94652344 14.45898438 31.95117188 C16.30602383 31.96293646 18.15302213 31.98087135 20 32 C19.67 29.69 19.34 27.38 19 25 C18.14535156 24.95101563 17.29070312 24.90203125 16.41015625 24.8515625 C15.30542969 24.77679688 14.20070312 24.70203125 13.0625 24.625 C11.96035156 24.55539062 10.85820312 24.48578125 9.72265625 24.4140625 C8.82417969 24.27742188 7.92570313 24.14078125 7 24 C6.67 23.34 6.34 22.68 6 22 C7.010625 21.71125 8.02125 21.4225 9.0625 21.125 C9.69671875 20.93808594 10.3309375 20.75117188 10.984375 20.55859375 C12.90762992 20.02559868 14.86058987 19.60348085 16.8125 19.1875 C20.19673865 18.34363707 20.19673865 18.34363707 21.25 15.4375 C21.4975 14.633125 21.745 13.82875 22 13 C22.99 12.67 23.98 12.34 25 12 C26.20882096 9.99983534 26.20882096 9.99983534 27 8 C27.07746506 12.57043872 26.92244002 16.51957703 26 21 C26.33 21.66 26.66 22.32 27 23 C27.14754174 24.78752492 27.2211522 26.5816284 27.25 28.375 C27.27578125 29.33148438 27.3015625 30.28796875 27.328125 31.2734375 C26.93330716 34.55418574 26.42935882 35.75827458 24 38 C19.00813433 39.93213848 14.50698551 40.24583932 9.1875 40.1875 C7.88167969 40.18105469 6.57585937 40.17460937 5.23046875 40.16796875 C2 40 2 40 0 39 C0 26.13 0 13.26 0 0 Z " fill="#526B79" transform="translate(136,315)"/>
<path d="M0 0 C1.73926758 -0.01836914 1.73926758 -0.01836914 3.51367188 -0.03710938 C9.78961404 -0.04781309 15.34421951 0.16975393 21.3125 2.1875 C24.3151986 5.1901986 23.63739079 8.56221949 23.6484375 12.58984375 C23.6550943 13.42334854 23.6617511 14.25685333 23.66860962 15.11561584 C23.67874313 16.88003326 23.68342642 18.64448906 23.68310547 20.40893555 C23.6874776 23.1111556 23.72378482 25.81174116 23.76171875 28.51367188 C23.76758696 30.2265569 23.77155632 31.9394497 23.7734375 33.65234375 C23.78780853 34.4617894 23.80217957 35.27123505 23.81698608 36.10520935 C23.77224051 41.58895895 23.77224051 41.58895895 21.76635742 44.20043945 C18.36953238 45.56680734 15.19158911 45.57793832 11.58984375 45.515625 C10.84795303 45.51375183 10.10606232 45.51187866 9.34169006 45.50994873 C7.77747078 45.50324157 6.21326789 45.48935353 4.64916992 45.46875 C2.25488696 45.43756365 -0.13873704 45.42777331 -2.53320312 45.421875 C-4.05469553 45.41270546 -5.57618124 45.40232985 -7.09765625 45.390625 C-7.81333267 45.38637512 -8.52900909 45.38212524 -9.26637268 45.37774658 C-12.33744544 45.33354815 -14.7515016 45.16616613 -17.6875 44.1875 C-20.3314514 40.63271897 -20.010537 36.52639141 -20.0234375 32.28125 C-20.0300943 31.51953491 -20.0367511 30.75781982 -20.04360962 29.97302246 C-20.05371376 28.3659913 -20.05842733 26.75891836 -20.05810547 25.15185547 C-20.06248558 22.69558741 -20.09884408 20.24110742 -20.13671875 17.78515625 C-20.14258609 16.22136029 -20.14655604 14.65755583 -20.1484375 13.09375 C-20.16280853 12.36136108 -20.17717957 11.62897217 -20.19198608 10.87438965 C-20.16116505 7.43070682 -19.95186357 5.53661975 -17.84619141 2.75585938 C-12.60672133 -1.0507857 -6.19376995 0.00338642 0 0 Z M-17.6875 5.1875 C-17.99190801 7.84771969 -18.10761287 10.27142329 -18.0859375 12.93359375 C-18.08880768 13.70051041 -18.09167786 14.46742706 -18.09463501 15.25758362 C-18.09667786 16.88079567 -18.0911325 18.50403221 -18.07861328 20.12719727 C-18.06258353 22.61205194 -18.07844195 25.09527472 -18.09765625 27.58007812 C-18.09567343 29.15625359 -18.09182894 30.73242805 -18.0859375 32.30859375 C-18.09201019 33.05241806 -18.09808289 33.79624237 -18.1043396 34.56260681 C-18.06608683 37.37011141 -17.97049854 39.65121545 -16.64575195 42.16162109 C-13.53373833 43.7919267 -10.38154879 43.55328246 -6.95703125 43.48046875 C-5.83140022 43.47410149 -5.83140022 43.47410149 -4.68302917 43.46760559 C-2.28831974 43.4508245 0.10554534 43.4131749 2.5 43.375 C4.1243368 43.35995235 5.7486868 43.34626409 7.37304688 43.33398438 C11.35318948 43.30092305 15.33270163 43.24914594 19.3125 43.1875 C19.3125 42.5275 19.3125 41.8675 19.3125 41.1875 C19.9725 41.1875 20.6325 41.1875 21.3125 41.1875 C21.36192899 36.25790878 21.39823318 31.32846175 21.42236328 26.39868164 C21.43242237 24.72157275 21.44607122 23.04448139 21.46337891 21.36743164 C21.48763152 18.95714998 21.4989839 16.54710014 21.5078125 14.13671875 C21.52329636 13.01157112 21.52329636 13.01157112 21.53909302 11.86369324 C21.539908 8.08449221 21.46307067 6.41335601 19.3125 3.1875 C16.72270523 2.89536027 14.37540533 2.79126796 11.78515625 2.82421875 C11.04043564 2.82372025 10.29571503 2.82322174 9.52842712 2.82270813 C7.95227391 2.82505005 6.37611707 2.83478561 4.80004883 2.85131836 C2.38784286 2.87487458 -0.02325542 2.87188523 -2.43554688 2.86523438 C-3.96615242 2.87081238 -5.49675331 2.87792303 -7.02734375 2.88671875 C-8.11026955 2.88535164 -8.11026955 2.88535164 -9.21507263 2.88395691 C-12.91534107 2.93628595 -14.52693367 3.08045578 -17.6875 5.1875 Z " fill="#D88D75" transform="translate(205.6875,233.8125)"/>
<path d="M0 0 C0.99 0.33 1.98 0.66 3 1 C2.67 1.99 2.34 2.98 2 4 C5.98979343 5.08380234 5.98979343 5.08380234 9.78515625 4.03515625 C12.82129858 2.61614793 15.35382284 2.77143567 18.6875 2.8125 C20.42580078 2.82216797 20.42580078 2.82216797 22.19921875 2.83203125 C25 3 25 3 26 4 C25.71269945 6.33944736 25.38063221 8.6739143 25 11 C26.32 11.33 27.64 11.66 29 12 C29 12.99 29 13.98 29 15 C28.01257813 15.06058594 27.02515625 15.12117187 26.0078125 15.18359375 C24.72648437 15.26738281 23.44515625 15.35117188 22.125 15.4375 C20.84882813 15.51871094 19.57265625 15.59992188 18.2578125 15.68359375 C15.11699848 15.79206027 15.11699848 15.79206027 13 17 C12.34 16.67 11.68 16.34 11 16 C11 14.68 11 13.36 11 12 C9.35 12.33 7.7 12.66 6 13 C5.67 14.98 5.34 16.96 5 19 C4.34 18.67 3.68 18.34 3 18 C2.375 15.9375 2.375 15.9375 2 14 C1.34 14 0.68 14 0 14 C0 9.38 0 4.76 0 0 Z " fill="#6E9FC8" transform="translate(228,196)"/>
<path d="M0 0 C5.28 0 10.56 0 16 0 C16 2.31 16 4.62 16 7 C12.7 7.33 9.4 7.66 6 8 C6 15.26 6 22.52 6 30 C1 31 1 31 -1 30 C-2.61263763 25.37608034 -2.18420599 20.39481348 -2.1875 15.5625 C-2.19974609 14.62083984 -2.21199219 13.67917969 -2.22460938 12.70898438 C-2.22654297 11.79568359 -2.22847656 10.88238281 -2.23046875 9.94140625 C-2.23457764 9.11326416 -2.23868652 8.28512207 -2.24291992 7.43188477 C-2 5 -2 5 0 0 Z " fill="#626E7C" transform="translate(197,324)"/>
<path d="M0 0 C1.32 0.33 2.64 0.66 4 1 C4 1.66 4 2.32 4 3 C7.96 3 11.92 3 16 3 C16.33 2.34 16.66 1.68 17 1 C17.33 3.31 17.66 5.62 18 8 C12.555 8.495 12.555 8.495 7 9 C7 10.65 7 12.3 7 14 C11.95 14 16.9 14 22 14 C22 16.31 22 18.62 22 21 C19.62468606 21.0543965 17.25064117 21.09385864 14.875 21.125 C14.20984375 21.14175781 13.5446875 21.15851563 12.859375 21.17578125 C8.51550425 21.21836822 4.99301715 20.73556672 1 19 C-0.65497356 15.69005287 -0.10084335 12.00877 -0.0625 8.375 C-0.05798828 7.57320313 -0.05347656 6.77140625 -0.04882812 5.9453125 C-0.03703168 3.96350994 -0.01909605 1.98174567 0 0 Z " fill="#212F3E" transform="translate(340,334)"/>
<path d="M0 0 C0.33 0 0.66 0 1 0 C1.02887236 3.81248426 1.04675492 7.6249407 1.0625 11.4375 C1.07087891 12.52611328 1.07925781 13.61472656 1.08789062 14.73632812 C1.09272461 16.28803711 1.09272461 16.28803711 1.09765625 17.87109375 C1.10551147 19.30859985 1.10551147 19.30859985 1.11352539 20.77514648 C1 23 1 23 0 24 C-15.79411491 25.01063533 -15.79411491 25.01063533 -22 22 C-24.6470449 18.05903219 -24.29682823 14.60083757 -24 10 C-23.34 9.34 -22.68 8.68 -22 8 C-22 8.66 -22 9.32 -22 10 C-16.72 10 -11.44 10 -6 10 C-5.67 11.32 -5.34 12.64 -5 14 C-3.68 13.67 -2.36 13.34 -1 13 C-0.67 8.71 -0.34 4.42 0 0 Z M-17 13 C-17 14.32 -17 15.64 -17 17 C-13.7 17 -10.4 17 -7 17 C-6.67 15.68 -6.34 14.36 -6 13 C-10.33629181 10.7043161 -12.53464227 11.13078049 -17 13 Z " fill="#586572" transform="translate(238,331)"/>
<path d="M0 0 C2.9389507 0.0868803 5.87481289 0.19373767 8.8125 0.3125 C9.64587891 0.33505859 10.47925781 0.35761719 11.33789062 0.38085938 C12.54155273 0.4340332 12.54155273 0.4340332 13.76953125 0.48828125 C14.87711792 0.52755737 14.87711792 0.52755737 16.00708008 0.56762695 C18.47166391 1.10232963 19.40052324 2.09965347 21 4 C18.22957891 6.77042109 16.23466195 6.39796106 12.375 6.625 C11.18648437 6.69976562 9.99796875 6.77453125 8.7734375 6.8515625 C7.40058594 6.92503906 7.40058594 6.92503906 6 7 C6 7.66 6 8.32 6 9 C8.64 9 11.28 9 14 9 C14 9.99 14 10.98 14 12 C6.74 12 -0.52 12 -8 12 C-8 11.01 -8 10.02 -8 9 C-6.68 8.34 -5.36 7.68 -4 7 C-5.32 6.34 -6.64 5.68 -8 5 C-8 4.01 -8 3.02 -8 2 C-5.36 2 -2.72 2 0 2 C0 1.34 0 0.68 0 0 Z " fill="#6B98BF" transform="translate(202,212)"/>
<path d="M0 0 C1.4540625 0.0309375 1.4540625 0.0309375 2.9375 0.0625 C4.14255676 6.41153038 3.88340824 12.50328977 3.5625 18.9375 C3.51867187 19.99453125 3.47484375 21.0515625 3.4296875 22.140625 C3.06921749 29.93078251 3.06921749 29.93078251 1.9375 31.0625 C0.27132885 31.10313832 -1.39638095 31.105221 -3.0625 31.0625 C-3.9168328 27.36180519 -4.19109476 23.93538359 -4.1953125 20.140625 C-4.19660156 19.03332031 -4.19789063 17.92601562 -4.19921875 16.78515625 C-4.19535156 15.63917969 -4.19148438 14.49320312 -4.1875 13.3125 C-4.19136719 12.15105469 -4.19523437 10.98960937 -4.19921875 9.79296875 C-4.19792969 8.69082031 -4.19664062 7.58867187 -4.1953125 6.453125 C-4.19418457 5.44282227 -4.19305664 4.43251953 -4.19189453 3.39160156 C-3.99402262 -0.17009277 -3.64361557 0.0743595 0 0 Z " fill="#22355B" transform="translate(307.0625,323.9375)"/>
<path d="M0 0 C1.15680267 0.00848969 1.15680267 0.00848969 2.3369751 0.01715088 C4.79299779 0.03948911 7.24754555 0.08967737 9.703125 0.140625 C11.37107263 0.16069346 13.03904321 0.17894363 14.70703125 0.1953125 C18.78962823 0.23934508 22.87112681 0.30835217 26.953125 0.390625 C26.953125 1.050625 26.953125 1.710625 26.953125 2.390625 C20.023125 2.390625 13.093125 2.390625 5.953125 2.390625 C6.58154473 6.3620419 6.58154473 6.3620419 8.953125 8.390625 C4.993125 8.390625 1.033125 8.390625 -3.046875 8.390625 C-3.376875 9.380625 -3.706875 10.370625 -4.046875 11.390625 C-7.81312171 12.64604057 -9.41876434 11.76124458 -13.046875 10.390625 C-12.74997254 7.12469791 -12.41752887 4.91366661 -10.50292969 2.21191406 C-7.10034714 -0.31127339 -4.06582366 -0.11267999 0 0 Z " fill="#74AAD4" transform="translate(243.046875,189.609375)"/>
<path d="M0 0 C2.51171875 1.515625 2.51171875 1.515625 5 4 C5.20914533 6.84922624 5.17665752 8.97821113 4.8125 11.75 C4.74224609 12.44738281 4.67199219 13.14476562 4.59960938 13.86328125 C4.4234273 15.57812008 4.21486649 17.28957762 4 19 C6.64 19 9.28 19 12 19 C13.125 23.75 13.125 23.75 12 26 C10.60517921 26.08204828 9.20891272 26.13966204 7.8125 26.1875 C7.03519531 26.22230469 6.25789063 26.25710938 5.45703125 26.29296875 C2.10211631 25.89293915 0.51225989 25.30510863 -2 23 C-2.68281982 20.02885334 -2.56043432 17.15737995 -2.4375 14.125 C-2.43169922 13.32191406 -2.42589844 12.51882813 -2.41992188 11.69140625 C-2.33112939 7.37964294 -1.97740953 3.92305345 0 0 Z " fill="#495561" transform="translate(322,329)"/>
<path d="M0 0 C0.66 0 1.32 0 2 0 C2 1.65 2 3.3 2 5 C-3.94 5.495 -3.94 5.495 -10 6 C-9.67 6.66 -9.34 7.32 -9 8 C-6.41394668 8.4683265 -6.41394668 8.4683265 -3.4375 8.625 C-2.42558594 8.69976562 -1.41367188 8.77453125 -0.37109375 8.8515625 C0.80259766 8.92503906 0.80259766 8.92503906 2 9 C2 9.66 2 10.32 2 11 C-3.445 11.495 -3.445 11.495 -9 12 C-9.33 13.32 -9.66 14.64 -10 16 C-7.03 16 -4.06 16 -1 16 C-1 16.33 -1 16.66 -1 17 C-1.62648437 17.06058594 -2.25296875 17.12117188 -2.8984375 17.18359375 C-4.12433594 17.30927734 -4.12433594 17.30927734 -5.375 17.4375 C-6.18710938 17.51871094 -6.99921875 17.59992188 -7.8359375 17.68359375 C-10.04272805 17.89090114 -10.04272805 17.89090114 -12 19 C-12 19.66 -12 20.32 -12 21 C-10.68 21 -9.36 21 -8 21 C-8 20.01 -8 19.02 -8 18 C-6.35 18.33 -4.7 18.66 -3 19 C-3 19.99 -3 20.98 -3 22 C-2.34 22.33 -1.68 22.66 -1 23 C-6.95930219 23.31364748 -10.70673117 22.80867326 -16 20 C-17.84715804 16.30568392 -17.47560286 12.03285167 -17 8 C-14.71959125 4.66083004 -12.862552 3.74172194 -9 3 C-7.41788427 2.93451508 -5.83329919 2.91421619 -4.25 2.9375 C-3.45078125 2.94652344 -2.6515625 2.95554687 -1.828125 2.96484375 C-1.22484375 2.97644531 -0.6215625 2.98804688 0 3 C0 2.01 0 1.02 0 0 Z " fill="#424F5D" transform="translate(184,332)"/>
<path d="M0 0 C0.77120178 0.00424484 1.54240356 0.00848969 2.3369751 0.01286316 C4.79271815 0.02961492 7.24763129 0.06725936 9.703125 0.10546875 C11.37108187 0.12052018 13.03905165 0.13420778 14.70703125 0.14648438 C18.78938078 0.17950681 22.87111232 0.23126391 26.953125 0.29296875 C26.953125 0.62296875 26.953125 0.95296875 26.953125 1.29296875 C25.48504395 1.31484253 25.48504395 1.31484253 23.98730469 1.3371582 C20.34907874 1.39521981 16.71146664 1.47245135 13.07373047 1.55541992 C11.50058978 1.58863247 9.92733099 1.61667592 8.35400391 1.6394043 C6.08965828 1.67301903 3.82639135 1.72533499 1.5625 1.78125 C0.86131042 1.78763992 0.16012085 1.79402985 -0.56231689 1.8006134 C-3.61180518 1.89201806 -5.79177776 2.15538765 -8.49584961 3.61376953 C-10.55984235 5.84832676 -10.48361079 7.72875737 -10.44921875 10.68969727 C-10.41957031 11.40440186 -10.38992187 12.11910645 -10.359375 12.85546875 C-10.33617187 13.96329712 -10.33617187 13.96329712 -10.3125 15.09350586 C-10.10058108 23.50050604 -9.59644516 31.90221012 -9.046875 40.29296875 C-5.88225885 41.87527683 -2.45608133 41.53454688 1.0234375 41.609375 C1.81966522 41.6301561 2.61589294 41.65093719 3.43624878 41.67234802 C5.98345185 41.73781024 8.53075925 41.7967129 11.078125 41.85546875 C12.80339627 41.89865715 14.52865693 41.94227154 16.25390625 41.98632812 C20.48687185 42.0934882 24.71994253 42.19476498 28.953125 42.29296875 C26.4741508 44.77194295 25.0295484 44.53890551 21.64529419 44.57086182 C20.92445648 44.56681335 20.20361877 44.56276489 19.4609375 44.55859375 C18.71858856 44.5605072 17.97623962 44.56242065 17.21139526 44.56439209 C15.63946189 44.56575405 14.06751728 44.5620568 12.49560547 44.55371094 C10.09446752 44.54304137 7.69408289 44.55358979 5.29296875 44.56640625 C3.76562335 44.56508406 2.23827842 44.56252045 0.7109375 44.55859375 C-0.00585175 44.56264221 -0.72264099 44.56669067 -1.46115112 44.57086182 C-5.12223098 44.53661493 -7.99589239 44.43649414 -11.046875 42.29296875 C-12.64513268 39.09645338 -12.25229165 35.62230322 -12.28515625 32.109375 C-12.293228 31.29806625 -12.30129974 30.48675751 -12.30961609 29.65086365 C-12.32345337 27.93352393 -12.33417712 26.21615675 -12.34204102 24.4987793 C-12.35928559 21.86910249 -12.40317638 19.2406728 -12.44726562 16.61132812 C-12.45738982 14.94401967 -12.46590678 13.27670053 -12.47265625 11.609375 C-12.49016434 10.82180313 -12.50767242 10.03423126 -12.52571106 9.22279358 C-12.51303929 6.04318333 -12.48620243 3.87005676 -10.52319336 1.29150391 C-7.02055569 -0.12087784 -3.71318447 -0.07718022 0 0 Z " fill="#D78F7B" transform="translate(243.046875,234.70703125)"/>
<path d="M0 0 C0.33 0 0.66 0 1 0 C1 10.89 1 21.78 1 33 C2.485 32.505 2.485 32.505 4 32 C6.73865287 31.92948886 9.45027588 31.90642235 12.1875 31.9375 C12.93708984 31.94201172 13.68667969 31.94652344 14.45898438 31.95117188 C16.30602383 31.96293646 18.15302213 31.98087135 20 32 C19.34 33.32 18.68 34.64 18 36 C19.98 36.33 21.96 36.66 24 37 C18.05090614 40.96606258 9.0220519 40.51454691 2 40 C1.34 39.67 0.68 39.34 0 39 C0 26.13 0 13.26 0 0 Z " fill="#67747F" transform="translate(136,315)"/>
<path d="M0 0 C3.46362663 2.30908442 3.56802619 2.9121266 4.375 6.8125 C4.97001388 10.24870517 5.12077393 11.6779362 3.875 15 C1.21841925 17.83368614 -0.83810981 18.88680726 -4.7265625 19.265625 C-5.68304688 19.26046875 -6.63953125 19.2553125 -7.625 19.25 C-8.58664062 19.25515625 -9.54828125 19.2603125 -10.5390625 19.265625 C-13 19 -13 19 -15 17 C-11.04 16.67 -7.08 16.34 -3 16 C-2.83322718 12.58343976 -2.83322718 12.58343976 -3 9 C-4.95633975 6.58878141 -4.95633975 6.58878141 -8.625 6.875 C-10.295625 6.936875 -10.295625 6.936875 -12 7 C-12.33 8.32 -12.66 9.64 -13 11 C-10.03 11 -7.06 11 -4 11 C-4 11.33 -4 11.66 -4 12 C-7.63 12 -11.26 12 -15 12 C-15 9.69 -15 7.38 -15 5 C-10.38 5 -5.76 5 -1 5 C-1.33 4.01 -1.66 3.02 -2 2 C-1.34 2 -0.68 2 0 2 C0 1.34 0 0.68 0 0 Z " fill="#465663" transform="translate(360,325)"/>
<path d="M0 0 C2.43816585 -0.0809723 4.87364384 -0.14046972 7.3125 -0.1875 C8.34793945 -0.22520508 8.34793945 -0.22520508 9.40429688 -0.26367188 C14.55674183 -0.33834499 14.55674183 -0.33834499 16.98046875 1.51171875 C17.31691406 2.00285156 17.65335938 2.49398437 18 3 C17.67 3.66 17.34 4.32 17 5 C15.02 5 13.04 5 11 5 C11 6.98 11 8.96 11 11 C9.7625 11.020625 8.525 11.04125 7.25 11.0625 C6.55390625 11.07410156 5.8578125 11.08570313 5.140625 11.09765625 C3 11 3 11 -1 10 C-0.67 6.7 -0.34 3.4 0 0 Z " fill="#C36F58" transform="translate(195,253)"/>
<path d="M0 0 C1.13630859 -0.00128906 2.27261719 -0.00257813 3.44335938 -0.00390625 C4.63123047 -0.00003906 5.81910156 0.00382813 7.04296875 0.0078125 C8.21923828 0.00394531 9.39550781 0.00007812 10.60742188 -0.00390625 C11.74759766 -0.00261719 12.88777344 -0.00132812 14.0625 0 C15.10124268 0.00112793 16.13998535 0.00225586 17.21020508 0.00341797 C20.28953854 0.13534318 23.20397842 0.56363223 26.23046875 1.1328125 C26.23046875 1.4628125 26.23046875 1.7928125 26.23046875 2.1328125 C15.01046875 2.1328125 3.79046875 2.1328125 -7.76953125 2.1328125 C-8.09953125 3.1228125 -8.42953125 4.1128125 -8.76953125 5.1328125 C-9.42953125 5.1328125 -10.08953125 5.1328125 -10.76953125 5.1328125 C-10.65112329 10.04426792 -10.52686402 14.9555276 -10.3972168 19.86669922 C-10.35394636 21.53690584 -10.31226576 23.20715444 -10.2722168 24.87744141 C-10.21432274 27.28040205 -10.15068385 29.68315291 -10.0859375 32.0859375 C-10.06086876 33.2033432 -10.06086876 33.2033432 -10.03529358 34.34332275 C-9.9389143 37.72791184 -9.80882951 40.8928649 -8.76953125 44.1328125 C-9.42953125 44.1328125 -10.08953125 44.1328125 -10.76953125 44.1328125 C-13.21658355 40.36886771 -13.09228635 36.56446593 -13.10546875 32.2265625 C-13.11212555 31.46484741 -13.11878235 30.70313232 -13.12564087 29.91833496 C-13.13574501 28.3113038 -13.14045858 26.70423086 -13.14013672 25.09716797 C-13.14451683 22.64089991 -13.18087533 20.18641992 -13.21875 17.73046875 C-13.22461734 16.16667279 -13.22858729 14.60286833 -13.23046875 13.0390625 C-13.24483978 12.30667358 -13.25921082 11.57428467 -13.27401733 10.81970215 C-13.2431963 7.37601932 -13.03389482 5.48193225 -10.92822266 2.70117188 C-7.30900806 0.07169499 -4.34517021 0.00473367 0 0 Z " fill="#E6B9B1" transform="translate(198.76953125,233.8671875)"/>
<path d="M0 0 C1.98 0 3.96 0 6 0 C6 6.93 6 13.86 6 21 C5.01 21.33 4.02 21.66 3 22 C2.67 22.66 2.34 23.32 2 24 C1.34 24 0.68 24 0 24 C0 16.08 0 8.16 0 0 Z " fill="#394652" transform="translate(274,324)"/>
<path d="M0 0 C0.75732422 0.04833984 1.51464844 0.09667969 2.29492188 0.14648438 C3.08060547 0.20255859 3.86628906 0.25863281 4.67578125 0.31640625 C5.47306641 0.36861328 6.27035156 0.42082031 7.09179688 0.47460938 C9.05764647 0.60409647 11.0230179 0.74080666 12.98828125 0.87890625 C12.65828125 3.18890625 12.32828125 5.49890625 11.98828125 7.87890625 C9.01828125 7.87890625 6.04828125 7.87890625 2.98828125 7.87890625 C2.98828125 6.55890625 2.98828125 5.23890625 2.98828125 3.87890625 C2.32828125 3.87890625 1.66828125 3.87890625 0.98828125 3.87890625 C0.65828125 5.19890625 0.32828125 6.51890625 -0.01171875 7.87890625 C-2.01126621 7.92144981 -4.01213511 7.91971408 -6.01171875 7.87890625 C-7.01171875 6.87890625 -7.01171875 6.87890625 -7.07421875 3.81640625 C-7.05359375 2.84703125 -7.03296875 1.87765625 -7.01171875 0.87890625 C-4.18726283 -0.06257906 -2.87000257 -0.1942107 0 0 Z " fill="#A26455" transform="translate(247.01171875,243.12109375)"/>
<path d="M0 0 C0.33 0.99 0.66 1.98 1 3 C6.28 3 11.56 3 17 3 C17 5.31 17 7.62 17 10 C14.62468606 10.0543965 12.25064117 10.09385864 9.875 10.125 C9.20984375 10.14175781 8.5446875 10.15851563 7.859375 10.17578125 C3.50483944 10.21847278 0.04399886 9.59996217 -4 8 C-3.67 6.68 -3.34 5.36 -3 4 C-2.67 4.66 -2.34 5.32 -2 6 C-1.34 4.02 -0.68 2.04 0 0 Z " fill="#48596A" transform="translate(345,345)"/>
<path d="M0 0 C3.31248187 -0.02888146 6.62493167 -0.04675799 9.9375 -0.0625 C10.88302734 -0.07087891 11.82855469 -0.07925781 12.80273438 -0.08789062 C14.15141602 -0.09272461 14.15141602 -0.09272461 15.52734375 -0.09765625 C16.77632446 -0.10551147 16.77632446 -0.10551147 18.05053711 -0.11352539 C20 0 20 0 21 1 C21 2.65 21 4.3 21 6 C14.07 6 7.14 6 0 6 C0 4.02 0 2.04 0 0 Z " fill="#573936" transform="translate(195,243)"/>
<path d="M0 0 C0.85609863 0.23771118 0.85609863 0.23771118 1.72949219 0.48022461 C3.97210188 0.99361343 6.03317915 1.20165896 8.328125 1.31640625 C9.52695313 1.37924805 9.52695313 1.37924805 10.75 1.44335938 C11.9875 1.50233398 11.9875 1.50233398 13.25 1.5625 C14.09046875 1.60568359 14.9309375 1.64886719 15.796875 1.69335938 C17.86440671 1.79908543 19.93218281 1.90001295 22 2 C22.09765625 8.15234375 22.09765625 8.15234375 22 10 C21 11 21 11 17.9375 11.0625 C16.968125 11.041875 15.99875 11.02125 15 11 C15 11.66 15 12.32 15 13 C9.72 13 4.44 13 -1 13 C-2.5121867 9.97562661 -2.17263369 7.33758466 -2 4 C-1 1.5625 -1 1.5625 0 0 Z M0 3 C0 4.98 0 6.96 0 9 C6.93 9 13.86 9 21 9 C21 7.35 21 5.7 21 4 C20.00516798 2.78356708 20.00516798 2.78356708 18.05053711 2.88647461 C16.8015564 2.89432983 16.8015564 2.89432983 15.52734375 2.90234375 C14.17866211 2.90717773 14.17866211 2.90717773 12.80273438 2.91210938 C11.85720703 2.92048828 10.91167969 2.92886719 9.9375 2.9375 C8.98810547 2.94201172 8.03871094 2.94652344 7.06054688 2.95117188 C4.70696935 2.9629989 2.35351523 2.97947975 0 3 Z " fill="#D0785F" transform="translate(195,240)"/>
<path d="M0 0 C2.475 0.495 2.475 0.495 5 1 C5 2.65 5 4.3 5 6 C10.94 5.505 10.94 5.505 17 5 C16.34 7.64 15.68 10.28 15 13 C13.22880197 12.85866501 11.45804713 12.71176792 9.6875 12.5625 C8.70136719 12.48128906 7.71523437 12.40007812 6.69921875 12.31640625 C4 12 4 12 1 11 C-0.20272819 8.59454362 -0.10071472 7.05003047 -0.0625 4.375 C-0.05347656 3.55773437 -0.04445312 2.74046875 -0.03515625 1.8984375 C-0.02355469 1.27195312 -0.01195312 0.64546875 0 0 Z " fill="#4A5662" transform="translate(215,342)"/>
<path d="M0 0 C1.65 0 3.3 0 5 0 C5 7.26 5 14.52 5 22 C3.02 22.99 3.02 22.99 1 24 C0 23 0 23 -0.11352539 20.77514648 C-0.10828857 19.81680908 -0.10305176 18.85847168 -0.09765625 17.87109375 C-0.09443359 16.83662109 -0.09121094 15.80214844 -0.08789062 14.73632812 C-0.07951172 13.64771484 -0.07113281 12.55910156 -0.0625 11.4375 C-0.05798828 10.34501953 -0.05347656 9.25253906 -0.04882812 8.12695312 C-0.03699826 5.41791505 -0.02051543 2.70898401 0 0 Z " fill="#2C3948" transform="translate(293,324)"/>
<path d="M0 0 C1.32 1.65 2.64 3.3 4 5 C5.98 4.67 7.96 4.34 10 4 C10 5.98 10 7.96 10 10 C8.35 10 6.7 10 5 10 C5 13.3 5 16.6 5 20 C5.66 20.33 6.32 20.66 7 21 C4.69 21 2.38 21 0 21 C0 14.07 0 7.14 0 0 Z " fill="#253242" transform="translate(137,327)"/>
<path d="M0 0 C0.89203125 0.10183594 1.7840625 0.20367187 2.703125 0.30859375 C3.37859375 0.39238281 4.0540625 0.47617187 4.75 0.5625 C5.08 2.2125 5.41 3.8625 5.75 5.5625 C7.07 5.8925 8.39 6.2225 9.75 6.5625 C6.38849548 7.68300151 3.78713274 7.69546652 0.25 7.6875 C-0.8946875 7.69007813 -2.039375 7.69265625 -3.21875 7.6953125 C-6.25 7.5625 -6.25 7.5625 -9.25 6.5625 C-9.25 4.5825 -9.25 2.6025 -9.25 0.5625 C-5.98086376 -0.46865279 -3.38958652 -0.4013984 0 0 Z " fill="#4A556D" transform="translate(253.25,347.4375)"/>
<path d="M0 0 C0.33 0 0.66 0 1 0 C1.33 7.26 1.66 14.52 2 22 C2.99 21.67 3.98 21.34 5 21 C5.33 14.07 5.66 7.14 6 0 C6.33 0 6.66 0 7 0 C7 9.57 7 19.14 7 29 C5.02 29.33 3.04 29.66 1 30 C0.67 28.35 0.34 26.7 0 25 C-3.96 24.67 -7.92 24.34 -12 24 C-11.67 23.34 -11.34 22.68 -11 22 C-7.7 22 -4.4 22 -1 22 C-0.67 14.74 -0.34 7.48 0 0 Z " fill="#69757F" transform="translate(292,325)"/>
<path d="M0 0 C4.95 0 9.9 0 15 0 C15 1.65 15 3.3 15 5 C14.39671875 4.99097656 13.7934375 4.98195313 13.171875 4.97265625 C10.61470177 5.06751913 8.45386542 5.25666039 6 6 C3.96119166 8.22610045 3.1862622 10.16328604 2 13 C1.34 13 0.68 13 0 13 C0 8.71 0 4.42 0 0 Z " fill="#2A3845" transform="translate(197,325)"/>
<path d="M0 0 C2.5 0.8125 2.5 0.8125 5 3 C5.46346554 6.69681924 5.28328381 10.29212965 5 14 C4.67 13.01 4.34 12.02 4 11 C3.401875 11.598125 2.80375 12.19625 2.1875 12.8125 C1.465625 13.534375 0.74375 14.25625 0 15 C-0.433125 15.53625 -0.86625 16.0725 -1.3125 16.625 C-3.89785421 18.73158491 -6.80642396 19.21667003 -10 20 C-10.33 19.01 -10.66 18.02 -11 17 C-10.67 16.34 -10.34 15.68 -10 15 C-7.35139573 14.40644386 -4.70802678 14.25790731 -2 14 C-2.02320313 13.24074219 -2.04640625 12.48148437 -2.0703125 11.69921875 C-2.09738281 10.20841797 -2.09738281 10.20841797 -2.125 8.6875 C-2.14820313 7.70136719 -2.17140625 6.71523438 -2.1953125 5.69921875 C-2 3 -2 3 0 0 Z " fill="#4A5963" transform="translate(157,316)"/>
<path d="M0 0 C0.79792969 0.00386719 1.59585937 0.00773437 2.41796875 0.01171875 C3.21589844 0.00785156 4.01382812 0.00398438 4.8359375 0 C10.79136108 0.01011108 10.79136108 0.01011108 11.91796875 1.13671875 C11.91796875 2.78671875 11.91796875 4.43671875 11.91796875 6.13671875 C5.64796875 6.13671875 -0.62203125 6.13671875 -7.08203125 6.13671875 C-6.42203125 4.81671875 -5.76203125 3.49671875 -5.08203125 2.13671875 C-5.74203125 1.80671875 -6.40203125 1.47671875 -7.08203125 1.13671875 C-5.19650595 -0.74880655 -2.50434294 0.00425186 0 0 Z " fill="#2D3A45" transform="translate(257.08203125,314.86328125)"/>
<path d="M0 0 C0 0.99 0 1.98 0 3 C-3.30994713 4.65497356 -6.99123 4.10084335 -10.625 4.0625 C-11.42679688 4.05798828 -12.22859375 4.05347656 -13.0546875 4.04882812 C-15.03649006 4.03703168 -17.01825433 4.01909605 -19 4 C-19.33 2.35 -19.66 0.7 -20 -1 C-17.41718164 -1.22224251 -14.83477813 -1.42823488 -12.25 -1.625 C-11.52039063 -1.68945312 -10.79078125 -1.75390625 -10.0390625 -1.8203125 C-6.14088264 -2.10381649 -3.29354678 -2.27081383 0 0 Z " fill="#845249" transform="translate(215,267)"/>
<path d="M0 0 C0.05410687 1.77049689 0.09284119 3.54146849 0.125 5.3125 C0.14820313 6.29863281 0.17140625 7.28476562 0.1953125 8.30078125 C0 11 0 11 -2 14 C-4.31 13.67 -6.62 13.34 -9 13 C-8.67 12.34 -8.34 11.68 -8 11 C-6.71312989 7.13938967 -6.86242382 4.05849717 -7 0 C-3.98968256 -0.93423645 -3.13349732 -1.04449911 0 0 Z " fill="#374652" transform="translate(163,338)"/>
<path d="M0 0 C1.65 1.32 3.3 2.64 5 4 C4.01 8.62 3.02 13.24 2 18 C1.34 18 0.68 18 0 18 C0 18.66 0 19.32 0 20 C-0.66 20 -1.32 20 -2 20 C-2.05425226 17.60385874 -2.09379027 15.20896147 -2.125 12.8125 C-2.14175781 12.13896484 -2.15851563 11.46542969 -2.17578125 10.77148438 C-2.21538674 6.71192193 -1.80020002 3.65001185 0 0 Z " fill="#223042" transform="translate(322,329)"/>
<path d="M0 0 C0.66 0.33 1.32 0.66 2 1 C-0.77042109 3.77042109 -2.76533805 3.39796106 -6.625 3.625 C-7.81351563 3.69976562 -9.00203125 3.77453125 -10.2265625 3.8515625 C-11.59941406 3.92503906 -11.59941406 3.92503906 -13 4 C-13 4.66 -13 5.32 -13 6 C-10.36 6 -7.72 6 -5 6 C-5 6.99 -5 7.98 -5 9 C-9.95 9 -14.9 9 -20 9 C-20.33 7.68 -20.66 6.36 -21 5 C-20.01 4.34 -19.02 3.68 -18 3 C-18 2.67 -18 2.34 -18 2 C-16.17662109 1.90912109 -16.17662109 1.90912109 -14.31640625 1.81640625 C-12.73175772 1.73201668 -11.14712298 1.6473679 -9.5625 1.5625 C-8.76005859 1.52318359 -7.95761719 1.48386719 -7.13085938 1.44335938 C-3.24760439 1.5945704 -3.24760439 1.5945704 0 0 Z " fill="#759FC4" transform="translate(221,215)"/>
<path d="M0 0 C5.61 0 11.22 0 17 0 C16.67 1.65 16.34 3.3 16 5 C10.72 5 5.44 5 0 5 C0 3.35 0 1.7 0 0 Z " fill="#263440" transform="translate(216,325)"/>
<path d="M0 0 C0.77120178 0.00424484 1.54240356 0.00848969 2.3369751 0.01286316 C4.79271815 0.02961492 7.24763129 0.06725936 9.703125 0.10546875 C11.37108187 0.12052018 13.03905165 0.13420778 14.70703125 0.14648438 C18.78938078 0.17950681 22.87111232 0.23126391 26.953125 0.29296875 C26.953125 0.62296875 26.953125 0.95296875 26.953125 1.29296875 C25.48504395 1.31484253 25.48504395 1.31484253 23.98730469 1.3371582 C20.34907874 1.39521981 16.71146664 1.47245135 13.07373047 1.55541992 C11.50058978 1.58863247 9.92733099 1.61667592 8.35400391 1.6394043 C6.08965828 1.67301903 3.82639135 1.72533499 1.5625 1.78125 C0.86131042 1.78763992 0.16012085 1.79402985 -0.56231689 1.8006134 C-3.4528622 1.88725394 -5.81441357 2.19424715 -8.484375 3.328125 C-10.89458066 6.35895862 -10.65016895 9.52962889 -10.65625 13.2421875 C-10.67278625 14.01480423 -10.68932251 14.78742096 -10.70635986 15.58345032 C-10.75491358 18.04920337 -10.77622588 20.51433947 -10.796875 22.98046875 C-10.82502872 24.65302596 -10.85495531 26.32555433 -10.88671875 27.99804688 C-10.96067381 32.09630337 -11.01020278 36.19421591 -11.046875 40.29296875 C-11.376875 40.29296875 -11.706875 40.29296875 -12.046875 40.29296875 C-12.1457114 35.07858832 -12.21832706 29.86475232 -12.26660156 24.6496582 C-12.28672403 22.87547306 -12.3140253 21.10135429 -12.34863281 19.32739258 C-12.39712492 16.77799108 -12.41983653 14.2294658 -12.4375 11.6796875 C-12.45814514 10.88584152 -12.47879028 10.09199554 -12.50006104 9.27409363 C-12.50136509 6.07769829 -12.4953646 3.88423809 -10.52539062 1.28710938 C-7.02120021 -0.11843272 -3.71262359 -0.07716857 0 0 Z " fill="#DAA499" transform="translate(243.046875,234.70703125)"/>
<path d="M0 0 C0.99 0 1.98 0 3 0 C4.33743169 6.20081967 4.33743169 6.20081967 2.8125 9.8125 C0.26601759 12.88584084 -1.7435264 13.87759283 -5.7265625 14.265625 C-6.68304688 14.26046875 -7.63953125 14.2553125 -8.625 14.25 C-9.58664062 14.25515625 -10.54828125 14.2603125 -11.5390625 14.265625 C-14 14 -14 14 -16 12 C-10.06 11.505 -10.06 11.505 -4 11 C-3.34 9.35 -2.68 7.7 -2 6 C-1.34 5.67 -0.68 5.34 0 5 C0 3.35 0 1.7 0 0 Z " fill="#485F71" transform="translate(361,330)"/>
<path d="M0 0 C0.99 0 1.98 0 3 0 C4.13016601 5.02296004 3.77916092 8.97874074 3 14 C1.34385343 14.38218767 -0.32457024 14.71395102 -2 15 C-3.56033623 13.43966377 -3.20707559 11.91052864 -3.25 9.75 C-3.20511234 5.72934774 -2.72555604 3.12934212 0 0 Z " fill="#3A4653" transform="translate(246,317)"/>
<path d="M0 0 C11.55 0 23.1 0 35 0 C35 0.66 35 1.32 35 2 C23.12 2.33 11.24 2.66 -1 3 C-0.67 2.01 -0.34 1.02 0 0 Z " fill="#9BBFD9" transform="translate(235,190)"/>
<path d="M0 0 C5.61 0 11.22 0 17 0 C13 5 13 5 9.765625 5.48828125 C8.02539062 5.40126953 8.02539062 5.40126953 6.25 5.3125 C5.07953125 5.26738281 3.9090625 5.22226562 2.703125 5.17578125 C1.81109375 5.11777344 0.9190625 5.05976563 0 5 C0 3.35 0 1.7 0 0 Z " fill="#263540" transform="translate(169,325)"/>
<path d="M0 0 C0.99 0 1.98 0 3 0 C4.2428547 5.54221131 3.91100229 10.75890563 3.5625 16.375 C3.51029297 17.30183594 3.45808594 18.22867187 3.40429688 19.18359375 C3.27544122 21.45613901 3.14051689 23.72815099 3 26 C2.34 25.67 1.68 25.34 1 25 C1 20.05 1 15.1 1 10 C0.01 10 -0.98 10 -2 10 C-2.75 8.25 -2.75 8.25 -3 6 C-1.0625 3.75 -1.0625 3.75 1 2 C0.67 1.34 0.34 0.68 0 0 Z " fill="#273745" transform="translate(307,325)"/>
<path d="M0 0 C1.79244141 0.01740234 1.79244141 0.01740234 3.62109375 0.03515625 C5.41740234 0.04869141 5.41740234 0.04869141 7.25 0.0625 C8.17683594 0.07410156 9.10367188 0.08570313 10.05859375 0.09765625 C10.62109375 2.03515625 10.62109375 2.03515625 11.05859375 4.09765625 C10.05859375 5.09765625 10.05859375 5.09765625 7.1171875 5.1953125 C5.32474609 5.17791016 5.32474609 5.17791016 3.49609375 5.16015625 C1.69978516 5.14662109 1.69978516 5.14662109 -0.1328125 5.1328125 C-1.05964844 5.12121094 -1.98648438 5.10960937 -2.94140625 5.09765625 C-3.50390625 3.16015625 -3.50390625 3.16015625 -3.94140625 1.09765625 C-2.94140625 0.09765625 -2.94140625 0.09765625 0 0 Z " fill="#28425B" transform="translate(242.94140625,198.90234375)"/>
<path d="M0 0 C4.95 0 9.9 0 15 0 C14.34 2.31 13.68 4.62 13 7 C12.34 6.67 11.68 6.34 11 6 C9.46331135 5.77532169 7.92031946 5.59203195 6.375 5.4375 C5.55773437 5.35371094 4.74046875 5.26992188 3.8984375 5.18359375 C3.27195313 5.12300781 2.64546875 5.06242187 2 5 C1.34 3.35 0.68 1.7 0 0 Z " fill="#253442" transform="translate(142,316)"/>
<path d="M0 0 C0.66 0.33 1.32 0.66 2 1 C1.01 1.33 0.02 1.66 -1 2 C-1 13.55 -1 25.1 -1 37 C0.32 37.33 1.64 37.66 3 38 C3 38.99 3 39.98 3 41 C6.465 40.505 6.465 40.505 10 40 C6.60535554 42.08901197 3.95158471 42.34361606 0 42 C-2 40 -2 40 -2.22705078 36.19287109 C-2.22673346 34.5530258 -2.21539681 32.91315983 -2.1953125 31.2734375 C-2.1924826 30.41062164 -2.18965271 29.54780579 -2.18673706 28.65884399 C-2.17552333 25.8974228 -2.15041684 23.1363235 -2.125 20.375 C-2.11497173 18.50521301 -2.10584562 16.63542095 -2.09765625 14.765625 C-2.07558012 10.17695891 -2.04104234 5.58853407 -2 1 C-1.34 0.67 -0.68 0.34 0 0 Z " fill="#3F4850" transform="translate(278,236)"/>
<path d="M0 0 C2 1 2 1 3.25 3.375 C3.4975 4.24125 3.745 5.1075 4 6 C3.01 7.485 3.01 7.485 2 9 C1.83329727 11.95826106 1.83329727 11.95826106 2 15 C2 19 2 19 0.5 20.75 C0.005 21.1625 -0.49 21.575 -1 22 C-3 20.625 -3 20.625 -5 19 C-5 18.34 -5 17.68 -5 17 C-4.0409375 16.7525 -4.0409375 16.7525 -3.0625 16.5 C-0.56316944 15.03358346 -0.56316944 15.03358346 -0.1875 11.1875 C0.07828747 7.93308003 -0.25027423 5.18633452 -1 2 C-0.67 1.34 -0.34 0.68 0 0 Z " fill="#46525E" transform="translate(249,315)"/>
<path d="M0 0 C1.32 0.33 2.64 0.66 4 1 C4 1.66 4 2.32 4 3 C4.66 3.66 5.32 4.32 6 5 C5.67 5.99 5.34 6.98 5 8 C-3.415 8.495 -3.415 8.495 -12 9 C-12 7.68 -12 6.36 -12 5 C-8.04 5.33 -4.08 5.66 0 6 C0 4.02 0 2.04 0 0 Z " fill="#E67954" transform="translate(206,258)"/>
<path d="M0 0 C2.69921875 -0.48828125 2.69921875 -0.48828125 5.6875 -0.3125 C6.68136719 -0.26738281 7.67523438 -0.22226562 8.69921875 -0.17578125 C9.45847656 -0.11777344 10.21773438 -0.05976563 11 0 C10.67 1.65 10.34 3.3 10 5 C5.71 5 1.42 5 -3 5 C-2.01 3.35 -1.02 1.7 0 0 Z " fill="#283946" transform="translate(252,332)"/>
<path d="M0 0 C0.33 0.66 0.66 1.32 1 2 C0.67 2.66 0.34 3.32 0 4 C1.32 4.33 2.64 4.66 4 5 C4 5.99 4 6.98 4 8 C-0.29 8 -4.58 8 -9 8 C-8.67 6.68 -8.34 5.36 -8 4 C-6.02 3.67 -4.04 3.34 -2 3 C-2.66 2.34 -3.32 1.68 -4 1 C-2.68 0.67 -1.36 0.34 0 0 Z " fill="#5D8AAF" transform="translate(253,203)"/>
<path d="M0 0 C0.33 0.66 0.66 1.32 1 2 C2.14339844 1.98839844 3.28679687 1.97679687 4.46484375 1.96484375 C5.95572754 1.95546712 7.44661309 1.94636679 8.9375 1.9375 C9.69224609 1.92912109 10.44699219 1.92074219 11.22460938 1.91210938 C13.14994313 1.90347559 15.07535581 1.94775667 17 2 C18 3 18 3 18.0625 6.0625 C18.041875 7.031875 18.02125 8.00125 18 9 C17.7525 8.360625 17.505 7.72125 17.25 7.0625 C16.19520442 4.88131102 16.19520442 4.88131102 14.1875 4.1875 C11.49274334 3.95652086 9.5677271 4.12156705 7 5 C5.63979849 6.96758273 5.63979849 6.96758273 5 9 C5 7.35 5 5.7 5 4 C4.34 4 3.68 4 3 4 C2.67 4.66 2.34 5.32 2 6 C1.67 5.34 1.34 4.68 1 4 C0.67 5.98 0.34 7.96 0 10 C-0.33 10 -0.66 10 -1 10 C-1.125 2.25 -1.125 2.25 0 0 Z " fill="#7C8793" transform="translate(215,339)"/>
<path d="M0 0 C0.33 0 0.66 0 1 0 C1 2.31 1 4.62 1 7 C1.99 7 2.98 7 4 7 C4.33 6.34 4.66 5.68 5 5 C5.36116046 6.4774746 5.71375048 7.95704675 6.0625 9.4375 C6.25972656 10.26121094 6.45695312 11.08492188 6.66015625 11.93359375 C6.77230469 12.61550781 6.88445312 13.29742187 7 14 C6 15 6 15 3.4375 15.0625 C2.633125 15.041875 1.82875 15.02125 1 15 C-0.32286246 10.03926578 -0.08893197 5.08888488 0 0 Z " fill="#475269" transform="translate(303,340)"/>
<path d="M0 0 C0.99 0.99 1.98 1.98 3 3 C2.67 3.66 2.34 4.32 2 5 C2.66 5 3.32 5 4 5 C4 4.34 4 3.68 4 3 C6.5 1.375 6.5 1.375 9 0 C10 6.625 10 6.625 10 10 C9.01 9.34 8.02 8.68 7 8 C6.34 8.66 5.68 9.32 5 10 C4.34 9.67 3.68 9.34 3 9 C3 8.01 3 7.02 3 6 C2.34 6 1.68 6 1 6 C1 5.34 1 4.68 1 4 C0.34 3.67 -0.32 3.34 -1 3 C-0.67 2.01 -0.34 1.02 0 0 Z " fill="#3E4A57" transform="translate(195,153)"/>
<path d="M0 0 C5.94 0 11.88 0 18 0 C18 0.99 18 1.98 18 3 C15.75006641 3.02707139 13.50003905 3.04642829 11.25 3.0625 C9.99703125 3.07410156 8.7440625 3.08570313 7.453125 3.09765625 C4.71463499 3.02021027 2.58119707 2.82780815 0 2 C0 1.34 0 0.68 0 0 Z " fill="#283542" transform="translate(196,245)"/>
<path d="M0 0 C5.61 0 11.22 0 17 0 C16.67 0.99 16.34 1.98 16 3 C10.72 3 5.44 3 0 3 C0 2.01 0 1.02 0 0 Z " fill="#2A4158" transform="translate(204,214)"/>
<path d="M0 0 C2.46800047 1.15173355 4.04783565 2.04783565 6 4 C6.125 6.625 6.125 6.625 6 9 C5.34 7.68 4.68 6.36 4 5 C3.01 5 2.02 5 1 5 C0.67 5.99 0.34 6.98 0 8 C-4.62 7.34 -9.24 6.68 -14 6 C-14 5.67 -14 5.34 -14 5 C-7.565 4.505 -7.565 4.505 -1 4 C-1.33 3.34 -1.66 2.68 -2 2 C-1.34 2 -0.68 2 0 2 C0 1.34 0 0.68 0 0 Z " fill="#6C8189" transform="translate(263,332)"/>
<path d="M0 0 C2.31 0 4.62 0 7 0 C7 2.31 7 4.62 7 7 C6.01 7.495 6.01 7.495 5 8 C2.375 7.0625 2.375 7.0625 0 6 C0 4.02 0 2.04 0 0 Z " fill="#414F59" transform="translate(303,315)"/>
<path d="M0 0 C1.65 0.33 3.3 0.66 5 1 C4.34 3.97 3.68 6.94 3 10 C0.03 9.505 0.03 9.505 -3 9 C-2.5020163 5.26512223 -2.12508244 3.18762365 0 0 Z " fill="#80B2DA" transform="translate(233,191)"/>
<path d="M0 0 C1.08152344 -0.01417969 2.16304687 -0.02835937 3.27734375 -0.04296875 C6.0625 0.1875 6.0625 0.1875 8.0625 2.1875 C4.85067851 4.09358098 2.52367397 4.41016247 -1.1875 4.3125 C-2.07953125 4.29445313 -2.9715625 4.27640625 -3.890625 4.2578125 C-4.90382812 4.22300781 -4.90382812 4.22300781 -5.9375 4.1875 C-6.2675 3.1975 -6.5975 2.2075 -6.9375 1.1875 C-5.13003866 -0.61996134 -2.43304219 0.01446517 0 0 Z " fill="#293645" transform="translate(179.9375,336.8125)"/>
<path d="M0 0 C3.6875 -0.3125 3.6875 -0.3125 7 0 C7 1.65 7 3.3 7 5 C3.30458414 5.95024979 0.69541586 5.95024979 -3 5 C-1.9375 2.5 -1.9375 2.5 0 0 Z " fill="#293642" transform="translate(286,349)"/>
<path d="M0 0 C4.95 0 9.9 0 15 0 C15 0.99 15 1.98 15 3 C10.05 3 5.1 3 0 3 C0 2.01 0 1.02 0 0 Z " fill="#523A39" transform="translate(195,253)"/>
<path d="M0 0 C4.95 0 9.9 0 15 0 C14.01 1.485 14.01 1.485 13 3 C10.1796875 3.29296875 10.1796875 3.29296875 6.875 3.1875 C5.23144531 3.14689453 5.23144531 3.14689453 3.5546875 3.10546875 C2.71164063 3.07066406 1.86859375 3.03585937 1 3 C0.67 2.01 0.34 1.02 0 0 Z M-2 3 C1 4 1 4 1 4 Z " fill="#253544" transform="translate(252,317)"/>
<path d="M0 0 C-0.66 1.65 -1.32 3.3 -2 5 C-4.64 5 -7.28 5 -10 5 C-9.75 3.125 -9.75 3.125 -9 1 C-5.84213022 -1.36840234 -3.69270227 -1.02575063 0 0 Z " fill="#6D99BC" transform="translate(204,205)"/>
<path d="M0 0 C1.49080078 0.02707031 1.49080078 0.02707031 3.01171875 0.0546875 C3.77097656 0.07789063 4.53023437 0.10109375 5.3125 0.125 C2.04467755 3.01935703 -0.27602766 4.78565597 -4.6875 5.125 C-7 4.6875 -7 4.6875 -8.6875 4.125 C-8.6875 3.465 -8.6875 2.805 -8.6875 2.125 C-5.26655758 -0.15562828 -4.00562778 -0.09425007 0 0 Z " fill="#273542" transform="translate(224.6875,336.875)"/>
<path d="M0 0 C0.99 0.33 1.98 0.66 3 1 C3 3.64 3 6.28 3 9 C2.01 9.33 1.02 9.66 0 10 C-0.33 10.66 -0.66 11.32 -1 12 C-1.66 11.67 -2.32 11.34 -3 11 C-2.53199289 6.94393835 -2.12046792 3.53411321 0 0 Z " fill="#273342" transform="translate(277,336)"/>
<path d="M0 0 C0.33 0 0.66 0 1 0 C1.29296875 6.0546875 1.29296875 6.0546875 1 8 C0.01 8.66 -0.98 9.32 -2 10 C-2.33 10.99 -2.66 11.98 -3 13 C-1.68 13.33 -0.36 13.66 1 14 C-2 15 -2 15 -4.1875 14.0625 C-4.785625 13.711875 -5.38375 13.36125 -6 13 C-6.042721 11.33388095 -6.04063832 9.66617115 -6 8 C-5 7 -5 7 -2.4375 6.9375 C-1.2309375 6.9684375 -1.2309375 6.9684375 0 7 C0 4.69 0 2.38 0 0 Z " fill="#848F98" transform="translate(319,317)"/>
<path d="M0 0 C0.99 0 1.98 0 3 0 C3 1.65 3 3.3 3 5 C3.66 5 4.32 5 5 5 C5 3.35 5 1.7 5 0 C5.66 0 6.32 0 7 0 C7 2.31 7 4.62 7 7 C5.00045254 7.04254356 2.99958364 7.04080783 1 7 C0 6 0 6 -0.0625 2.9375 C-0.041875 1.968125 -0.02125 0.99875 0 0 Z " fill="#653C33" transform="translate(240,244)"/>
<path d="M0 0 C0.66 0 1.32 0 2 0 C3.60725635 3.21451269 3.05748185 6.43612536 3 10 C2.67 9.01 2.34 8.02 2 7 C0.68 7.99 -0.64 8.98 -2 10 C-2.1953125 3.9453125 -2.1953125 3.9453125 -2 2 C-1.34 1.34 -0.68 0.68 0 0 Z " fill="#293845" transform="translate(159,320)"/>
<path d="M0 0 C0.33 0.99 0.66 1.98 1 3 C6.28 3 11.56 3 17 3 C17 3.33 17 3.66 17 4 C15.41058594 4.09087891 15.41058594 4.09087891 13.7890625 4.18359375 C12.40102779 4.26800127 11.01300768 4.35264917 9.625 4.4375 C8.92632812 4.47681641 8.22765625 4.51613281 7.5078125 4.55664062 C3.62639508 4.74280134 3.62639508 4.74280134 0 6 C0.33 6.99 0.66 7.98 1 9 C-0.65 8.67 -2.3 8.34 -4 8 C-3.67 6.68 -3.34 5.36 -3 4 C-2.67 4.66 -2.34 5.32 -2 6 C-1.34 4.02 -0.68 2.04 0 0 Z " fill="#636E78" transform="translate(345,345)"/>
<path d="M0 0 C2.625 1.4375 2.625 1.4375 5 3 C4.67 4.32 4.34 5.64 4 7 C2.34385343 7.38218767 0.67542976 7.71395102 -1 8 C-2 7 -2 7 -2.0625 3.9375 C-2.041875 2.968125 -2.02125 1.99875 -2 1 C-1.34 0.67 -0.68 0.34 0 0 Z " fill="#374350" transform="translate(139,347)"/>
<path d="M0 0 C0.33 0 0.66 0 1 0 C1.33 1.98 1.66 3.96 2 6 C3.98 6 5.96 6 8 6 C8.33 5.01 8.66 4.02 9 3 C9.66 3 10.32 3 11 3 C10.67 4.98 10.34 6.96 10 9 C5.545 9.495 5.545 9.495 1 10 C-0.1577506 6.52674819 -0.06866652 3.63932552 0 0 Z " fill="#DB795D" transform="translate(239,244)"/>
<path d="M0 0 C3.96 0 7.92 0 12 0 C12 0.99 12 1.98 12 3 C8.04 3 4.08 3 0 3 C0 2.01 0 1.02 0 0 Z " fill="#314D6A" transform="translate(204,221)"/>
<path d="M0 0 C1.4540625 0.0309375 1.4540625 0.0309375 2.9375 0.0625 C2.2775 0.7225 1.6175 1.3825 0.9375 2.0625 C0.9375 3.0525 0.9375 4.0425 0.9375 5.0625 C-0.0525 5.7225 -1.0425 6.3825 -2.0625 7.0625 C-2.7225 8.0525 -3.3825 9.0425 -4.0625 10.0625 C-4.08939216 8.58343108 -4.10884621 7.10422517 -4.125 5.625 C-4.13660156 4.80128906 -4.14820313 3.97757812 -4.16015625 3.12890625 C-4.00103255 -0.23815127 -3.43619093 0.07012635 0 0 Z " fill="#545F6B" transform="translate(307.0625,323.9375)"/>
<path d="M0 0 C3.63 0 7.26 0 11 0 C11 0.99 11 1.98 11 3 C7.37 3 3.74 3 0 3 C0 2.01 0 1.02 0 0 Z " fill="#5B3838" transform="translate(194,260)"/>
<path d="M0 0 C0.33 0 0.66 0 1 0 C1 3.3 1 6.6 1 10 C1.66 10.33 2.32 10.66 3 11 C2.67 11.66 2.34 12.32 2 13 C1.76666713 19.08516056 1.76666713 19.08516056 3 25 C2.01 24.67 1.02 24.34 0 24 C0 16.08 0 8.16 0 0 Z " fill="#3B4755" transform="translate(276,208)"/>
<path d="M0 0 C0.33 0 0.66 0 1 0 C0.39516129 7.37903226 0.39516129 7.37903226 -1.3125 10.0625 C-3 11 -3 11 -5.1875 10.6875 C-5.785625 10.460625 -6.38375 10.23375 -7 10 C-6.34 8.68 -5.68 7.36 -5 6 C-4.01 6 -3.02 6 -2 6 C-1.34 4.02 -0.68 2.04 0 0 Z " fill="#66737E" transform="translate(269,342)"/>
<path d="M0 0 C0.66 0 1.32 0 2 0 C2 1.65 2 3.3 2 5 C-2.95 5 -7.9 5 -13 5 C-9.25631258 3.12815629 -8.1599209 2.76000233 -4.25 2.875 C-3.45078125 2.89304687 -2.6515625 2.91109375 -1.828125 2.9296875 C-1.22484375 2.95289063 -0.6215625 2.97609375 0 3 C0 2.01 0 1.02 0 0 Z " fill="#6E768F" transform="translate(184,332)"/>
<path d="M0 0 C3.63 0 7.26 0 11 0 C11 0.33 11 0.66 11 1 C8.36 1.33 5.72 1.66 3 2 C2.67 3.32 2.34 4.64 2 6 C4.97 6 7.94 6 11 6 C11 6.33 11 6.66 11 7 C7.37 7 3.74 7 0 7 C0 4.69 0 2.38 0 0 Z " fill="#818D94" transform="translate(345,330)"/>
<path d="M0 0 C2.97 0 5.94 0 9 0 C9 0.66 9 1.32 9 2 C4.545 3.485 4.545 3.485 0 5 C-0.33 4.01 -0.66 3.02 -1 2 C-0.67 1.34 -0.34 0.68 0 0 Z " fill="#344656" transform="translate(147,331)"/>
<path d="M0 0 C2 1 2 1 3.25 3.375 C3.4975 4.24125 3.745 5.1075 4 6 C3.01 7.485 3.01 7.485 2 9 C1.60986284 10.9896995 1.26797351 12.99019869 1 15 C0.67 15 0.34 15 0 15 C0.020625 13.783125 0.04125 12.56625 0.0625 11.3125 C0.07398775 8.06721163 -0.34517344 5.18058614 -1 2 C-0.67 1.34 -0.34 0.68 0 0 Z " fill="#596578" transform="translate(249,315)"/>
<path d="M0 0 C5.61 0.66 11.22 1.32 17 2 C17 2.33 17 2.66 17 3 C8.585 3.495 8.585 3.495 0 4 C0 2.68 0 1.36 0 0 Z " fill="#DA795E" transform="translate(194,263)"/>
<path d="M0 0 C0.33 0.66 0.66 1.32 1 2 C-1 5 -1 5 -4.125 5.6875 C-5.07375 5.790625 -6.0225 5.89375 -7 6 C-7.66 4.68 -8.32 3.36 -9 2 C-6.94921875 1.77213542 -4.8984375 1.54427083 -2.84765625 1.31640625 C-0.98859771 1.18113386 -0.98859771 1.18113386 0 0 Z " fill="#253141" transform="translate(231,347)"/>
<path d="M0 0 C1.32 0.33 2.64 0.66 4 1 C4.33 2.65 4.66 4.3 5 6 C4.34 6 3.68 6 3 6 C2.67 5.34 2.34 4.68 2 4 C1.01 5.485 1.01 5.485 0 7 C-1.32 6.67 -2.64 6.34 -4 6 C-3.01 5.67 -2.02 5.34 -1 5 C-0.67 3.35 -0.34 1.7 0 0 Z " fill="#43505B" transform="translate(233,325)"/>
<path d="M0 0 C0 1.65 0 3.3 0 5 C-1.98 5 -3.96 5 -6 5 C-6.33 4.34 -6.66 3.68 -7 3 C-5.40442685 -0.19114631 -3.35905282 0 0 0 Z " fill="#283544" transform="translate(362,349)"/>
<path d="M0 0 C2.64 0 5.28 0 8 0 C8.33 1.32 8.66 2.64 9 4 C6.03 3.67 3.06 3.34 0 3 C0 2.01 0 1.02 0 0 Z " fill="#243242" transform="translate(349,338)"/>
<path d="M0 0 C2.475 0.495 2.475 0.495 5 1 C5 2.65 5 4.3 5 6 C3.35 6.33 1.7 6.66 0 7 C0 4.69 0 2.38 0 0 Z " fill="#273543" transform="translate(215,342)"/>
<path d="M0 0 C3.96 0 7.92 0 12 0 C12 0.66 12 1.32 12 2 C6.06 2.495 6.06 2.495 0 3 C0 2.01 0 1.02 0 0 Z " fill="#62969E" transform="translate(174,341)"/>
<path d="M0 0 C0.33 0 0.66 0 1 0 C1.04898438 1.27617187 1.09796875 2.55234375 1.1484375 3.8671875 C1.22346191 5.53648072 1.29900988 7.20575046 1.375 8.875 C1.4059375 9.71675781 1.436875 10.55851562 1.46875 11.42578125 C1.50742188 12.23144531 1.54609375 13.03710938 1.5859375 13.8671875 C1.6173584 14.61081543 1.6487793 15.35444336 1.68115234 16.12060547 C1.85419551 18.24010974 1.85419551 18.24010974 4 20 C2.68 20 1.36 20 0 20 C0 13.4 0 6.8 0 0 Z " fill="#DB8169" transform="translate(232,257)"/>
<path d="M0 0 C2.64 0 5.28 0 8 0 C8.33 0.99 8.66 1.98 9 3 C6.03 3 3.06 3 0 3 C0 2.01 0 1.02 0 0 Z " fill="#75493D" transform="translate(250,248)"/>
<path d="M0 0 C1.64574566 -0.02688151 3.29161413 -0.04634123 4.9375 -0.0625 C5.85402344 -0.07410156 6.77054688 -0.08570313 7.71484375 -0.09765625 C10 0 10 0 11 1 C11.04080783 2.99958364 11.04254356 5.00045254 11 7 C10.7525 6.360625 10.505 5.72125 10.25 5.0625 C9.20196676 2.874103 9.20196676 2.874103 7.1875 2.25 C4.77172869 1.97391185 2.42947614 1.93251455 0 2 C0 1.34 0 0.68 0 0 Z " fill="#739AA3" transform="translate(222,341)"/>
<path d="M0 0 C0.33 0 0.66 0 1 0 C1 1.65 1 3.3 1 5 C-4.28 5 -9.56 5 -15 5 C-15 4.67 -15 4.34 -15 4 C-14.16855469 3.93941406 -13.33710938 3.87882812 -12.48046875 3.81640625 C-11.39378906 3.73261719 -10.30710937 3.64882813 -9.1875 3.5625 C-7.56908203 3.44068359 -7.56908203 3.44068359 -5.91796875 3.31640625 C-2.94010095 3.09787539 -2.94010095 3.09787539 0 2 C0 1.34 0 0.68 0 0 Z " fill="#444F56" transform="translate(268,316)"/>
<path d="M0 0 C3.3 0 6.6 0 10 0 C8.02 0.99 8.02 0.99 6 2 C5.01 1.67 4.02 1.34 3 1 C3 1.99 3 2.98 3 4 C1.68 4 0.36 4 -1 4 C-0.67 2.68 -0.34 1.36 0 0 Z " fill="#24323E" transform="translate(173,349)"/>
<path d="M0 0 C0 1.65 0 3.3 0 5 C-0.66 4.34 -1.32 3.68 -2 3 C-2.33 3.99 -2.66 4.98 -3 6 C-3.66 6 -4.32 6 -5 6 C-5.33 4.02 -5.66 2.04 -6 0 C-2.25 -1.125 -2.25 -1.125 0 0 Z " fill="#263340" transform="translate(162,338)"/>
<path d="M0 0 C0.5775 0.165 1.155 0.33 1.75 0.5 C4.26664369 1.14462031 4.26664369 1.14462031 8 1 C8 1.99 8 2.98 8 4 C5.36 3.67 2.72 3.34 0 3 C0 2.01 0 1.02 0 0 Z " fill="#59636B" transform="translate(222,351)"/>
<path d="M0 0 C1.32 0.33 2.64 0.66 4 1 C3.01 1.495 3.01 1.495 2 2 C1.5316735 4.58605332 1.5316735 4.58605332 1.375 7.5625 C1.30023438 8.57441406 1.22546875 9.58632813 1.1484375 10.62890625 C1.09945312 11.41136719 1.05046875 12.19382812 1 13 C0.67 13 0.34 13 0 13 C0 8.71 0 4.42 0 0 Z " fill="#212E3A" transform="translate(197,325)"/>
<path d="M0 0 C1.65 0 3.3 0 5 0 C5 1.32 5 2.64 5 4 C3.35 4 1.7 4 0 4 C0 2.68 0 1.36 0 0 Z " fill="#283642" transform="translate(329,326)"/>
<path d="M0 0 C6.15234375 -0.09765625 6.15234375 -0.09765625 8 0 C9 1 9 1 9.0625 3.5625 C9.041875 4.366875 9.02125 5.17125 9 6 C8.62875 5.54625 8.2575 5.0925 7.875 4.625 C5.45735315 2.52970606 3.04569398 1.87986715 0 1 C0 0.67 0 0.34 0 0 Z " fill="#78878E" transform="translate(326,324)"/>
<path d="M0 0 C1.32 0 2.64 0 4 0 C4 0.99 4 1.98 4 3 C7.465 2.505 7.465 2.505 11 2 C7.5980513 4.09350689 4.94727588 4.17942163 1 4 C0.67 2.68 0.34 1.36 0 0 Z " fill="#576278" transform="translate(277,274)"/>
<path d="M0 0 C2.31 0 4.62 0 7 0 C7 0.99 7 1.98 7 3 C4.69 3 2.38 3 0 3 C0 2.01 0 1.02 0 0 Z " fill="#325472" transform="translate(194,221)"/>
<path d="M0 0 C2.31 0 4.62 0 7 0 C7 0.99 7 1.98 7 3 C4.69 3 2.38 3 0 3 C0 2.01 0 1.02 0 0 Z " fill="#294B68" transform="translate(194,214)"/>
<path d="M0 0 C2.31 0 4.62 0 7 0 C7 0.99 7 1.98 7 3 C4.69 3 2.38 3 0 3 C0 2.01 0 1.02 0 0 Z " fill="#294B67" transform="translate(244,208)"/>
<path d="M0 0 C2.31 0 4.62 0 7 0 C7 0.99 7 1.98 7 3 C4.69 3 2.38 3 0 3 C0 2.01 0 1.02 0 0 Z " fill="#294863" transform="translate(194,207)"/>
<path d="M0 0 C1.32 0.33 2.64 0.66 4 1 C4 2.32 4 3.64 4 5 C2.66666667 5 1.33333333 5 0 5 C0 3.35 0 1.7 0 0 Z " fill="#2E3C4A" transform="translate(340,346)"/>
<path d="M0 0 C-1 1 -1 1 -3.06640625 1.09765625 C-3.89011719 1.08605469 -4.71382812 1.07445312 -5.5625 1.0625 C-6.38878906 1.05347656 -7.21507812 1.04445312 -8.06640625 1.03515625 C-8.70449219 1.02355469 -9.34257812 1.01195312 -10 1 C-9.67 0.34 -9.34 -0.32 -9 -1 C-5.26793158 -2.21040057 -3.31957615 -2.0901035 0 0 Z " fill="#73A9D4" transform="translate(252,206)"/>
<path d="M0 0 C2.7839183 1.39195915 2.97898997 3.15575779 4 6 C2.68 6 1.36 6 0 6 C0 5.01 0 4.02 0 3 C-0.66 2.67 -1.32 2.34 -2 2 C-1.34 1.34 -0.68 0.68 0 0 Z " fill="#202E3A" transform="translate(259,347)"/>
<path d="M0 0 C0.33 0.66 0.66 1.32 1 2 C1.99 2.33 2.98 2.66 4 3 C2.02253397 3.73080266 0.01927511 4.39421747 -2 5 C-2.66 4.67 -3.32 4.34 -4 4 C-2.68 2.68 -1.36 1.36 0 0 Z " fill="#22313D" transform="translate(285,272)"/>
<path d="M0 0 C2 1.375 2 1.375 4 3 C4 3.66 4 4.32 4 5 C3.01 5 2.02 5 1 5 C0.67 5.66 0.34 6.32 0 7 C-0.93423645 3.98968256 -1.04449911 3.13349732 0 0 Z " fill="#5C727E" transform="translate(300,200)"/>
<path d="M0 0 C1.98 0 3.96 0 6 0 C6.33 0.99 6.66 1.98 7 3 C4.69 3 2.38 3 0 3 C0 2.01 0 1.02 0 0 Z " fill="#273746" transform="translate(241,200)"/>
<path d="M0 0 C0.99 0.66 1.98 1.32 3 2 C1.35 3.32 -0.3 4.64 -2 6 C-2.66 5.67 -3.32 5.34 -4 5 C-3 2 -3 2 0 0 Z " fill="#35424F" transform="translate(186,325)"/>
<path d="M0 0 C0.33 1.32 0.66 2.64 1 4 C2.65 4 4.3 4 6 4 C5.67 4.99 5.34 5.98 5 7 C3.35 6.67 1.7 6.34 0 6 C0 4.02 0 2.04 0 0 Z " fill="#3D4952" transform="translate(304,316)"/>
<path d="M0 0 C1.98 0 3.96 0 6 0 C5.67 1.65 5.34 3.3 5 5 C3.35 3.35 1.7 1.7 0 0 Z " fill="#3E4B58" transform="translate(206,164)"/>
</svg>
